G04 #@! TF.FileFunction,Legend,Bot*
%FSLAX46Y46*%
G04 Gerber Fmt 4.6, Leading zero omitted, Abs format (unit mm)*
G04 Created by KiCad (PCBNEW 4.0.6-e0-6349~52~ubuntu16.10.1) date Sat Apr 29 12:35:10 2017*
%MOMM*%
%LPD*%
G01*
G04 APERTURE LIST*
%ADD10C,0.100000*%
%ADD11C,0.203200*%
%ADD12C,0.101600*%
%ADD13C,0.150000*%
%ADD14C,0.120000*%
%ADD15C,0.050800*%
G04 APERTURE END LIST*
D10*
D11*
X256499360Y-104601780D02*
X256499360Y-106598220D01*
X251500640Y-104601780D02*
X251500640Y-106598220D01*
X254698500Y-103100640D02*
X254899160Y-103100640D01*
X253100840Y-103100640D02*
X253301500Y-103100640D01*
X253100840Y-108099360D02*
X253301500Y-108099360D01*
X254698500Y-108099360D02*
X254899160Y-108099360D01*
X253873000Y-105854000D02*
X254127000Y-105854000D01*
X254127000Y-105854000D02*
X254127000Y-106108000D01*
X254127000Y-106108000D02*
X253873000Y-106108000D01*
X253873000Y-106108000D02*
X253873000Y-105854000D01*
D12*
X256157033Y-104901500D02*
G75*
G03X256157033Y-104901500I-158053J0D01*
G01*
D13*
X264000000Y-110000000D02*
G75*
G03X264000000Y-110000000I-10000000J0D01*
G01*
X264550000Y-117625000D02*
X264550000Y-102375000D01*
X243450000Y-102375000D02*
X243500000Y-117625000D01*
X264550000Y-102375000D02*
X243450000Y-102375000D01*
X264550000Y-117625000D02*
X243450000Y-117625000D01*
D14*
X247150000Y-117950000D02*
X242900000Y-117950000D01*
X247150000Y-120050000D02*
X242900000Y-120050000D01*
X247150000Y-117950000D02*
X247150000Y-120050000D01*
X263250000Y-126625000D02*
X262550000Y-126625000D01*
X262550000Y-127825000D02*
X263250000Y-127825000D01*
X263100000Y-118000000D02*
X262400000Y-118000000D01*
X262400000Y-119200000D02*
X263100000Y-119200000D01*
X262130000Y-140070000D02*
X262130000Y-134930000D01*
X262130000Y-134930000D02*
X267330000Y-134930000D01*
X267330000Y-134930000D02*
X267330000Y-142670000D01*
X267330000Y-142670000D02*
X264730000Y-142670000D01*
X264730000Y-142670000D02*
X264730000Y-140070000D01*
X264730000Y-140070000D02*
X262130000Y-140070000D01*
X262130000Y-141340000D02*
X262130000Y-142670000D01*
X262130000Y-142670000D02*
X263460000Y-142670000D01*
X262260000Y-129370000D02*
X262260000Y-130300000D01*
X262260000Y-132530000D02*
X262260000Y-131600000D01*
X262260000Y-132530000D02*
X260100000Y-132530000D01*
X262260000Y-129370000D02*
X260800000Y-129370000D01*
X244750000Y-138100000D02*
X245450000Y-138100000D01*
X245450000Y-136900000D02*
X244750000Y-136900000D01*
X264600000Y-132400000D02*
X263900000Y-132400000D01*
X263900000Y-133600000D02*
X264600000Y-133600000D01*
X264750000Y-128570000D02*
X263750000Y-128570000D01*
X263750000Y-129930000D02*
X264750000Y-129930000D01*
D13*
X266025000Y-120575000D02*
X265500000Y-120575000D01*
X260775000Y-125825000D02*
X261300000Y-125825000D01*
X260775000Y-120575000D02*
X261300000Y-120575000D01*
X266025000Y-125825000D02*
X266025000Y-125300000D01*
X260775000Y-125825000D02*
X260775000Y-125300000D01*
X260775000Y-120575000D02*
X260775000Y-121100000D01*
X266025000Y-120575000D02*
X266025000Y-121100000D01*
D11*
X229499360Y-104601780D02*
X229499360Y-106598220D01*
X224500640Y-104601780D02*
X224500640Y-106598220D01*
X227698500Y-103100640D02*
X227899160Y-103100640D01*
X226100840Y-103100640D02*
X226301500Y-103100640D01*
X226100840Y-108099360D02*
X226301500Y-108099360D01*
X227698500Y-108099360D02*
X227899160Y-108099360D01*
X226873000Y-105854000D02*
X227127000Y-105854000D01*
X227127000Y-105854000D02*
X227127000Y-106108000D01*
X227127000Y-106108000D02*
X226873000Y-106108000D01*
X226873000Y-106108000D02*
X226873000Y-105854000D01*
D12*
X229157033Y-104901500D02*
G75*
G03X229157033Y-104901500I-158053J0D01*
G01*
D11*
X202499360Y-104601780D02*
X202499360Y-106598220D01*
X197500640Y-104601780D02*
X197500640Y-106598220D01*
X200698500Y-103100640D02*
X200899160Y-103100640D01*
X199100840Y-103100640D02*
X199301500Y-103100640D01*
X199100840Y-108099360D02*
X199301500Y-108099360D01*
X200698500Y-108099360D02*
X200899160Y-108099360D01*
X199873000Y-105854000D02*
X200127000Y-105854000D01*
X200127000Y-105854000D02*
X200127000Y-106108000D01*
X200127000Y-106108000D02*
X199873000Y-106108000D01*
X199873000Y-106108000D02*
X199873000Y-105854000D01*
D12*
X202157033Y-104901500D02*
G75*
G03X202157033Y-104901500I-158053J0D01*
G01*
D13*
X239025000Y-120575000D02*
X238500000Y-120575000D01*
X233775000Y-125825000D02*
X234300000Y-125825000D01*
X233775000Y-120575000D02*
X234300000Y-120575000D01*
X239025000Y-125825000D02*
X239025000Y-125300000D01*
X233775000Y-125825000D02*
X233775000Y-125300000D01*
X233775000Y-120575000D02*
X233775000Y-121100000D01*
X239025000Y-120575000D02*
X239025000Y-121100000D01*
X212025000Y-120575000D02*
X211500000Y-120575000D01*
X206775000Y-125825000D02*
X207300000Y-125825000D01*
X206775000Y-120575000D02*
X207300000Y-120575000D01*
X212025000Y-125825000D02*
X212025000Y-125300000D01*
X206775000Y-125825000D02*
X206775000Y-125300000D01*
X206775000Y-120575000D02*
X206775000Y-121100000D01*
X212025000Y-120575000D02*
X212025000Y-121100000D01*
D14*
X235130000Y-140070000D02*
X235130000Y-134930000D01*
X235130000Y-134930000D02*
X240330000Y-134930000D01*
X240330000Y-134930000D02*
X240330000Y-142670000D01*
X240330000Y-142670000D02*
X237730000Y-142670000D01*
X237730000Y-142670000D02*
X237730000Y-140070000D01*
X237730000Y-140070000D02*
X235130000Y-140070000D01*
X235130000Y-141340000D02*
X235130000Y-142670000D01*
X235130000Y-142670000D02*
X236460000Y-142670000D01*
X208130000Y-140070000D02*
X208130000Y-134930000D01*
X208130000Y-134930000D02*
X213330000Y-134930000D01*
X213330000Y-134930000D02*
X213330000Y-142670000D01*
X213330000Y-142670000D02*
X210730000Y-142670000D01*
X210730000Y-142670000D02*
X210730000Y-140070000D01*
X210730000Y-140070000D02*
X208130000Y-140070000D01*
X208130000Y-141340000D02*
X208130000Y-142670000D01*
X208130000Y-142670000D02*
X209460000Y-142670000D01*
X217750000Y-138100000D02*
X218450000Y-138100000D01*
X218450000Y-136900000D02*
X217750000Y-136900000D01*
X190750000Y-138100000D02*
X191450000Y-138100000D01*
X191450000Y-136900000D02*
X190750000Y-136900000D01*
X237600000Y-132400000D02*
X236900000Y-132400000D01*
X236900000Y-133600000D02*
X237600000Y-133600000D01*
X210600000Y-132400000D02*
X209900000Y-132400000D01*
X209900000Y-133600000D02*
X210600000Y-133600000D01*
X235260000Y-129370000D02*
X235260000Y-130300000D01*
X235260000Y-132530000D02*
X235260000Y-131600000D01*
X235260000Y-132530000D02*
X233100000Y-132530000D01*
X235260000Y-129370000D02*
X233800000Y-129370000D01*
X208260000Y-129370000D02*
X208260000Y-130300000D01*
X208260000Y-132530000D02*
X208260000Y-131600000D01*
X208260000Y-132530000D02*
X206100000Y-132530000D01*
X208260000Y-129370000D02*
X206800000Y-129370000D01*
X237750000Y-128570000D02*
X236750000Y-128570000D01*
X236750000Y-129930000D02*
X237750000Y-129930000D01*
X210750000Y-128570000D02*
X209750000Y-128570000D01*
X209750000Y-129930000D02*
X210750000Y-129930000D01*
X236100000Y-118000000D02*
X235400000Y-118000000D01*
X235400000Y-119200000D02*
X236100000Y-119200000D01*
X209100000Y-118000000D02*
X208400000Y-118000000D01*
X208400000Y-119200000D02*
X209100000Y-119200000D01*
X236250000Y-126625000D02*
X235550000Y-126625000D01*
X235550000Y-127825000D02*
X236250000Y-127825000D01*
X209250000Y-126625000D02*
X208550000Y-126625000D01*
X208550000Y-127825000D02*
X209250000Y-127825000D01*
X220150000Y-117950000D02*
X215900000Y-117950000D01*
X220150000Y-120050000D02*
X215900000Y-120050000D01*
X220150000Y-117950000D02*
X220150000Y-120050000D01*
X193150000Y-117950000D02*
X188900000Y-117950000D01*
X193150000Y-120050000D02*
X188900000Y-120050000D01*
X193150000Y-117950000D02*
X193150000Y-120050000D01*
D13*
X237000000Y-110000000D02*
G75*
G03X237000000Y-110000000I-10000000J0D01*
G01*
X237550000Y-117625000D02*
X237550000Y-102375000D01*
X216450000Y-102375000D02*
X216500000Y-117625000D01*
X237550000Y-102375000D02*
X216450000Y-102375000D01*
X237550000Y-117625000D02*
X216450000Y-117625000D01*
X210000000Y-110000000D02*
G75*
G03X210000000Y-110000000I-10000000J0D01*
G01*
X210550000Y-117625000D02*
X210550000Y-102375000D01*
X189450000Y-102375000D02*
X189500000Y-117625000D01*
X210550000Y-102375000D02*
X189450000Y-102375000D01*
X210550000Y-117625000D02*
X189450000Y-117625000D01*
X264000000Y-90000000D02*
G75*
G03X264000000Y-90000000I-10000000J0D01*
G01*
X243450000Y-82375000D02*
X243450000Y-97625000D01*
X264550000Y-97625000D02*
X264500000Y-82375000D01*
X243450000Y-97625000D02*
X264550000Y-97625000D01*
X243450000Y-82375000D02*
X264550000Y-82375000D01*
X237000000Y-90000000D02*
G75*
G03X237000000Y-90000000I-10000000J0D01*
G01*
X216450000Y-82375000D02*
X216450000Y-97625000D01*
X237550000Y-97625000D02*
X237500000Y-82375000D01*
X216450000Y-97625000D02*
X237550000Y-97625000D01*
X216450000Y-82375000D02*
X237550000Y-82375000D01*
D14*
X260850000Y-82050000D02*
X265100000Y-82050000D01*
X260850000Y-79950000D02*
X265100000Y-79950000D01*
X260850000Y-82050000D02*
X260850000Y-79950000D01*
X233850000Y-82050000D02*
X238100000Y-82050000D01*
X233850000Y-79950000D02*
X238100000Y-79950000D01*
X233850000Y-82050000D02*
X233850000Y-79950000D01*
X244750000Y-73375000D02*
X245450000Y-73375000D01*
X245450000Y-72175000D02*
X244750000Y-72175000D01*
X217750000Y-73375000D02*
X218450000Y-73375000D01*
X218450000Y-72175000D02*
X217750000Y-72175000D01*
X244900000Y-82000000D02*
X245600000Y-82000000D01*
X245600000Y-80800000D02*
X244900000Y-80800000D01*
X217900000Y-82000000D02*
X218600000Y-82000000D01*
X218600000Y-80800000D02*
X217900000Y-80800000D01*
X243250000Y-71430000D02*
X244250000Y-71430000D01*
X244250000Y-70070000D02*
X243250000Y-70070000D01*
X216250000Y-71430000D02*
X217250000Y-71430000D01*
X217250000Y-70070000D02*
X216250000Y-70070000D01*
X245740000Y-70630000D02*
X245740000Y-69700000D01*
X245740000Y-67470000D02*
X245740000Y-68400000D01*
X245740000Y-67470000D02*
X247900000Y-67470000D01*
X245740000Y-70630000D02*
X247200000Y-70630000D01*
X218740000Y-70630000D02*
X218740000Y-69700000D01*
X218740000Y-67470000D02*
X218740000Y-68400000D01*
X218740000Y-67470000D02*
X220900000Y-67470000D01*
X218740000Y-70630000D02*
X220200000Y-70630000D01*
X243400000Y-67600000D02*
X244100000Y-67600000D01*
X244100000Y-66400000D02*
X243400000Y-66400000D01*
X216400000Y-67600000D02*
X217100000Y-67600000D01*
X217100000Y-66400000D02*
X216400000Y-66400000D01*
X263250000Y-61900000D02*
X262550000Y-61900000D01*
X262550000Y-63100000D02*
X263250000Y-63100000D01*
X236250000Y-61900000D02*
X235550000Y-61900000D01*
X235550000Y-63100000D02*
X236250000Y-63100000D01*
X245870000Y-59930000D02*
X245870000Y-65070000D01*
X245870000Y-65070000D02*
X240670000Y-65070000D01*
X240670000Y-65070000D02*
X240670000Y-57330000D01*
X240670000Y-57330000D02*
X243270000Y-57330000D01*
X243270000Y-57330000D02*
X243270000Y-59930000D01*
X243270000Y-59930000D02*
X245870000Y-59930000D01*
X245870000Y-58660000D02*
X245870000Y-57330000D01*
X245870000Y-57330000D02*
X244540000Y-57330000D01*
X218870000Y-59930000D02*
X218870000Y-65070000D01*
X218870000Y-65070000D02*
X213670000Y-65070000D01*
X213670000Y-65070000D02*
X213670000Y-57330000D01*
X213670000Y-57330000D02*
X216270000Y-57330000D01*
X216270000Y-57330000D02*
X216270000Y-59930000D01*
X216270000Y-59930000D02*
X218870000Y-59930000D01*
X218870000Y-58660000D02*
X218870000Y-57330000D01*
X218870000Y-57330000D02*
X217540000Y-57330000D01*
D13*
X241975000Y-79425000D02*
X242500000Y-79425000D01*
X247225000Y-74175000D02*
X246700000Y-74175000D01*
X247225000Y-79425000D02*
X246700000Y-79425000D01*
X241975000Y-74175000D02*
X241975000Y-74700000D01*
X247225000Y-74175000D02*
X247225000Y-74700000D01*
X247225000Y-79425000D02*
X247225000Y-78900000D01*
X241975000Y-79425000D02*
X241975000Y-78900000D01*
X214975000Y-79425000D02*
X215500000Y-79425000D01*
X220225000Y-74175000D02*
X219700000Y-74175000D01*
X220225000Y-79425000D02*
X219700000Y-79425000D01*
X214975000Y-74175000D02*
X214975000Y-74700000D01*
X220225000Y-74175000D02*
X220225000Y-74700000D01*
X220225000Y-79425000D02*
X220225000Y-78900000D01*
X214975000Y-79425000D02*
X214975000Y-78900000D01*
D11*
X251500640Y-95398220D02*
X251500640Y-93401780D01*
X256499360Y-95398220D02*
X256499360Y-93401780D01*
X253301500Y-96899360D02*
X253100840Y-96899360D01*
X254899160Y-96899360D02*
X254698500Y-96899360D01*
X254899160Y-91900640D02*
X254698500Y-91900640D01*
X253301500Y-91900640D02*
X253100840Y-91900640D01*
X254127000Y-94146000D02*
X253873000Y-94146000D01*
X253873000Y-94146000D02*
X253873000Y-93892000D01*
X253873000Y-93892000D02*
X254127000Y-93892000D01*
X254127000Y-93892000D02*
X254127000Y-94146000D01*
D12*
X252159073Y-95098500D02*
G75*
G03X252159073Y-95098500I-158053J0D01*
G01*
D11*
X224500640Y-95398220D02*
X224500640Y-93401780D01*
X229499360Y-95398220D02*
X229499360Y-93401780D01*
X226301500Y-96899360D02*
X226100840Y-96899360D01*
X227899160Y-96899360D02*
X227698500Y-96899360D01*
X227899160Y-91900640D02*
X227698500Y-91900640D01*
X226301500Y-91900640D02*
X226100840Y-91900640D01*
X227127000Y-94146000D02*
X226873000Y-94146000D01*
X226873000Y-94146000D02*
X226873000Y-93892000D01*
X226873000Y-93892000D02*
X227127000Y-93892000D01*
X227127000Y-93892000D02*
X227127000Y-94146000D01*
D12*
X225159073Y-95098500D02*
G75*
G03X225159073Y-95098500I-158053J0D01*
G01*
D13*
X187975000Y-79425000D02*
X188500000Y-79425000D01*
X193225000Y-74175000D02*
X192700000Y-74175000D01*
X193225000Y-79425000D02*
X192700000Y-79425000D01*
X187975000Y-74175000D02*
X187975000Y-74700000D01*
X193225000Y-74175000D02*
X193225000Y-74700000D01*
X193225000Y-79425000D02*
X193225000Y-78900000D01*
X187975000Y-79425000D02*
X187975000Y-78900000D01*
D14*
X189250000Y-71430000D02*
X190250000Y-71430000D01*
X190250000Y-70070000D02*
X189250000Y-70070000D01*
X189400000Y-67600000D02*
X190100000Y-67600000D01*
X190100000Y-66400000D02*
X189400000Y-66400000D01*
X209250000Y-61900000D02*
X208550000Y-61900000D01*
X208550000Y-63100000D02*
X209250000Y-63100000D01*
X191740000Y-70630000D02*
X191740000Y-69700000D01*
X191740000Y-67470000D02*
X191740000Y-68400000D01*
X191740000Y-67470000D02*
X193900000Y-67470000D01*
X191740000Y-70630000D02*
X193200000Y-70630000D01*
X191870000Y-59930000D02*
X191870000Y-65070000D01*
X191870000Y-65070000D02*
X186670000Y-65070000D01*
X186670000Y-65070000D02*
X186670000Y-57330000D01*
X186670000Y-57330000D02*
X189270000Y-57330000D01*
X189270000Y-57330000D02*
X189270000Y-59930000D01*
X189270000Y-59930000D02*
X191870000Y-59930000D01*
X191870000Y-58660000D02*
X191870000Y-57330000D01*
X191870000Y-57330000D02*
X190540000Y-57330000D01*
X190900000Y-82000000D02*
X191600000Y-82000000D01*
X191600000Y-80800000D02*
X190900000Y-80800000D01*
X190750000Y-73375000D02*
X191450000Y-73375000D01*
X191450000Y-72175000D02*
X190750000Y-72175000D01*
X206850000Y-82050000D02*
X211100000Y-82050000D01*
X206850000Y-79950000D02*
X211100000Y-79950000D01*
X206850000Y-82050000D02*
X206850000Y-79950000D01*
D13*
X210000000Y-90000000D02*
G75*
G03X210000000Y-90000000I-10000000J0D01*
G01*
X189450000Y-82375000D02*
X189450000Y-97625000D01*
X210550000Y-97625000D02*
X210500000Y-82375000D01*
X189450000Y-97625000D02*
X210550000Y-97625000D01*
X189450000Y-82375000D02*
X210550000Y-82375000D01*
D11*
X197500640Y-95398220D02*
X197500640Y-93401780D01*
X202499360Y-95398220D02*
X202499360Y-93401780D01*
X199301500Y-96899360D02*
X199100840Y-96899360D01*
X200899160Y-96899360D02*
X200698500Y-96899360D01*
X200899160Y-91900640D02*
X200698500Y-91900640D01*
X199301500Y-91900640D02*
X199100840Y-91900640D01*
X200127000Y-94146000D02*
X199873000Y-94146000D01*
X199873000Y-94146000D02*
X199873000Y-93892000D01*
X199873000Y-93892000D02*
X200127000Y-93892000D01*
X200127000Y-93892000D02*
X200127000Y-94146000D01*
D12*
X198159073Y-95098500D02*
G75*
G03X198159073Y-95098500I-158053J0D01*
G01*
D15*
X257519714Y-105527428D02*
X256757714Y-105527428D01*
X256757714Y-105346000D01*
X256794000Y-105237143D01*
X256866571Y-105164571D01*
X256939143Y-105128286D01*
X257084286Y-105092000D01*
X257193143Y-105092000D01*
X257338286Y-105128286D01*
X257410857Y-105164571D01*
X257483429Y-105237143D01*
X257519714Y-105346000D01*
X257519714Y-105527428D01*
X257519714Y-104366286D02*
X257519714Y-104801714D01*
X257519714Y-104584000D02*
X256757714Y-104584000D01*
X256866571Y-104656571D01*
X256939143Y-104729143D01*
X256975429Y-104801714D01*
X251169714Y-107269142D02*
X251169714Y-107631999D01*
X250407714Y-107631999D01*
X250770571Y-107015142D02*
X250770571Y-106761142D01*
X251169714Y-106652285D02*
X251169714Y-107015142D01*
X250407714Y-107015142D01*
X250407714Y-106652285D01*
X251169714Y-106325713D02*
X250407714Y-106325713D01*
X250407714Y-106144285D01*
X250444000Y-106035428D01*
X250516571Y-105962856D01*
X250589143Y-105926571D01*
X250734286Y-105890285D01*
X250843143Y-105890285D01*
X250988286Y-105926571D01*
X251060857Y-105962856D01*
X251133429Y-106035428D01*
X251169714Y-106144285D01*
X251169714Y-106325713D01*
X251242286Y-105745142D02*
X251242286Y-105164571D01*
X251169714Y-104547714D02*
X250806857Y-104801714D01*
X251169714Y-104983142D02*
X250407714Y-104983142D01*
X250407714Y-104692857D01*
X250444000Y-104620285D01*
X250480286Y-104584000D01*
X250552857Y-104547714D01*
X250661714Y-104547714D01*
X250734286Y-104584000D01*
X250770571Y-104620285D01*
X250806857Y-104692857D01*
X250806857Y-104983142D01*
X250444000Y-103822000D02*
X250407714Y-103894571D01*
X250407714Y-104003428D01*
X250444000Y-104112285D01*
X250516571Y-104184857D01*
X250589143Y-104221142D01*
X250734286Y-104257428D01*
X250843143Y-104257428D01*
X250988286Y-104221142D01*
X251060857Y-104184857D01*
X251133429Y-104112285D01*
X251169714Y-104003428D01*
X251169714Y-103930857D01*
X251133429Y-103822000D01*
X251097143Y-103785714D01*
X250843143Y-103785714D01*
X250843143Y-103930857D01*
X250770571Y-103205142D02*
X250806857Y-103096285D01*
X250843143Y-103060000D01*
X250915714Y-103023714D01*
X251024571Y-103023714D01*
X251097143Y-103060000D01*
X251133429Y-103096285D01*
X251169714Y-103168857D01*
X251169714Y-103459142D01*
X250407714Y-103459142D01*
X250407714Y-103205142D01*
X250444000Y-103132571D01*
X250480286Y-103096285D01*
X250552857Y-103060000D01*
X250625429Y-103060000D01*
X250698000Y-103096285D01*
X250734286Y-103132571D01*
X250770571Y-103205142D01*
X250770571Y-103459142D01*
D13*
X263785714Y-118928571D02*
X263642857Y-118976190D01*
X263595238Y-119023810D01*
X263547619Y-119119048D01*
X263547619Y-119261905D01*
X263595238Y-119357143D01*
X263642857Y-119404762D01*
X263738095Y-119452381D01*
X264119048Y-119452381D01*
X264119048Y-118452381D01*
X263785714Y-118452381D01*
X263690476Y-118500000D01*
X263642857Y-118547619D01*
X263595238Y-118642857D01*
X263595238Y-118738095D01*
X263642857Y-118833333D01*
X263690476Y-118880952D01*
X263785714Y-118928571D01*
X264119048Y-118928571D01*
X263261905Y-118452381D02*
X262690476Y-118452381D01*
X262976191Y-119452381D02*
X262976191Y-118452381D01*
X261833333Y-119452381D02*
X262404762Y-119452381D01*
X262119048Y-119452381D02*
X262119048Y-118452381D01*
X262214286Y-118595238D01*
X262309524Y-118690476D01*
X262404762Y-118738095D01*
X244666666Y-116807143D02*
X244714285Y-116854762D01*
X244857142Y-116902381D01*
X244952380Y-116902381D01*
X245095238Y-116854762D01*
X245190476Y-116759524D01*
X245238095Y-116664286D01*
X245285714Y-116473810D01*
X245285714Y-116330952D01*
X245238095Y-116140476D01*
X245190476Y-116045238D01*
X245095238Y-115950000D01*
X244952380Y-115902381D01*
X244857142Y-115902381D01*
X244714285Y-115950000D01*
X244666666Y-115997619D01*
X244333333Y-115902381D02*
X243714285Y-115902381D01*
X244047619Y-116283333D01*
X243904761Y-116283333D01*
X243809523Y-116330952D01*
X243761904Y-116378571D01*
X243714285Y-116473810D01*
X243714285Y-116711905D01*
X243761904Y-116807143D01*
X243809523Y-116854762D01*
X243904761Y-116902381D01*
X244190476Y-116902381D01*
X244285714Y-116854762D01*
X244333333Y-116807143D01*
X263066666Y-126082143D02*
X263114285Y-126129762D01*
X263257142Y-126177381D01*
X263352380Y-126177381D01*
X263495238Y-126129762D01*
X263590476Y-126034524D01*
X263638095Y-125939286D01*
X263685714Y-125748810D01*
X263685714Y-125605952D01*
X263638095Y-125415476D01*
X263590476Y-125320238D01*
X263495238Y-125225000D01*
X263352380Y-125177381D01*
X263257142Y-125177381D01*
X263114285Y-125225000D01*
X263066666Y-125272619D01*
X262209523Y-125510714D02*
X262209523Y-126177381D01*
X262447619Y-125129762D02*
X262685714Y-125844048D01*
X262066666Y-125844048D01*
X262916666Y-117457143D02*
X262964285Y-117504762D01*
X263107142Y-117552381D01*
X263202380Y-117552381D01*
X263345238Y-117504762D01*
X263440476Y-117409524D01*
X263488095Y-117314286D01*
X263535714Y-117123810D01*
X263535714Y-116980952D01*
X263488095Y-116790476D01*
X263440476Y-116695238D01*
X263345238Y-116600000D01*
X263202380Y-116552381D01*
X263107142Y-116552381D01*
X262964285Y-116600000D01*
X262916666Y-116647619D01*
X262011904Y-116552381D02*
X262488095Y-116552381D01*
X262535714Y-117028571D01*
X262488095Y-116980952D01*
X262392857Y-116933333D01*
X262154761Y-116933333D01*
X262059523Y-116980952D01*
X262011904Y-117028571D01*
X261964285Y-117123810D01*
X261964285Y-117361905D01*
X262011904Y-117457143D01*
X262059523Y-117504762D01*
X262154761Y-117552381D01*
X262392857Y-117552381D01*
X262488095Y-117504762D01*
X262535714Y-117457143D01*
X265838095Y-134652381D02*
X265838095Y-133652381D01*
X265457142Y-133652381D01*
X265361904Y-133700000D01*
X265314285Y-133747619D01*
X265266666Y-133842857D01*
X265266666Y-133985714D01*
X265314285Y-134080952D01*
X265361904Y-134128571D01*
X265457142Y-134176190D01*
X265838095Y-134176190D01*
X264885714Y-133747619D02*
X264838095Y-133700000D01*
X264742857Y-133652381D01*
X264504761Y-133652381D01*
X264409523Y-133700000D01*
X264361904Y-133747619D01*
X264314285Y-133842857D01*
X264314285Y-133938095D01*
X264361904Y-134080952D01*
X264933333Y-134652381D01*
X264314285Y-134652381D01*
X262261905Y-132902381D02*
X262261905Y-133711905D01*
X262214286Y-133807143D01*
X262166667Y-133854762D01*
X262071429Y-133902381D01*
X261880952Y-133902381D01*
X261785714Y-133854762D01*
X261738095Y-133807143D01*
X261690476Y-133711905D01*
X261690476Y-132902381D01*
X260690476Y-133902381D02*
X261261905Y-133902381D01*
X260976191Y-133902381D02*
X260976191Y-132902381D01*
X261071429Y-133045238D01*
X261166667Y-133140476D01*
X261261905Y-133188095D01*
X245266666Y-139357143D02*
X245314285Y-139404762D01*
X245457142Y-139452381D01*
X245552380Y-139452381D01*
X245695238Y-139404762D01*
X245790476Y-139309524D01*
X245838095Y-139214286D01*
X245885714Y-139023810D01*
X245885714Y-138880952D01*
X245838095Y-138690476D01*
X245790476Y-138595238D01*
X245695238Y-138500000D01*
X245552380Y-138452381D01*
X245457142Y-138452381D01*
X245314285Y-138500000D01*
X245266666Y-138547619D01*
X244314285Y-139452381D02*
X244885714Y-139452381D01*
X244600000Y-139452381D02*
X244600000Y-138452381D01*
X244695238Y-138595238D01*
X244790476Y-138690476D01*
X244885714Y-138738095D01*
X264416666Y-131857143D02*
X264464285Y-131904762D01*
X264607142Y-131952381D01*
X264702380Y-131952381D01*
X264845238Y-131904762D01*
X264940476Y-131809524D01*
X264988095Y-131714286D01*
X265035714Y-131523810D01*
X265035714Y-131380952D01*
X264988095Y-131190476D01*
X264940476Y-131095238D01*
X264845238Y-131000000D01*
X264702380Y-130952381D01*
X264607142Y-130952381D01*
X264464285Y-131000000D01*
X264416666Y-131047619D01*
X264035714Y-131047619D02*
X263988095Y-131000000D01*
X263892857Y-130952381D01*
X263654761Y-130952381D01*
X263559523Y-131000000D01*
X263511904Y-131047619D01*
X263464285Y-131142857D01*
X263464285Y-131238095D01*
X263511904Y-131380952D01*
X264083333Y-131952381D01*
X263464285Y-131952381D01*
X264416666Y-131152381D02*
X264750000Y-130676190D01*
X264988095Y-131152381D02*
X264988095Y-130152381D01*
X264607142Y-130152381D01*
X264511904Y-130200000D01*
X264464285Y-130247619D01*
X264416666Y-130342857D01*
X264416666Y-130485714D01*
X264464285Y-130580952D01*
X264511904Y-130628571D01*
X264607142Y-130676190D01*
X264988095Y-130676190D01*
X263464285Y-131152381D02*
X264035714Y-131152381D01*
X263750000Y-131152381D02*
X263750000Y-130152381D01*
X263845238Y-130295238D01*
X263940476Y-130390476D01*
X264035714Y-130438095D01*
X266602381Y-122438095D02*
X267411905Y-122438095D01*
X267507143Y-122485714D01*
X267554762Y-122533333D01*
X267602381Y-122628571D01*
X267602381Y-122819048D01*
X267554762Y-122914286D01*
X267507143Y-122961905D01*
X267411905Y-123009524D01*
X266602381Y-123009524D01*
X266602381Y-123390476D02*
X266602381Y-124009524D01*
X266983333Y-123676190D01*
X266983333Y-123819048D01*
X267030952Y-123914286D01*
X267078571Y-123961905D01*
X267173810Y-124009524D01*
X267411905Y-124009524D01*
X267507143Y-123961905D01*
X267554762Y-123914286D01*
X267602381Y-123819048D01*
X267602381Y-123533333D01*
X267554762Y-123438095D01*
X267507143Y-123390476D01*
D15*
X230519714Y-105527428D02*
X229757714Y-105527428D01*
X229757714Y-105346000D01*
X229794000Y-105237143D01*
X229866571Y-105164571D01*
X229939143Y-105128286D01*
X230084286Y-105092000D01*
X230193143Y-105092000D01*
X230338286Y-105128286D01*
X230410857Y-105164571D01*
X230483429Y-105237143D01*
X230519714Y-105346000D01*
X230519714Y-105527428D01*
X230519714Y-104366286D02*
X230519714Y-104801714D01*
X230519714Y-104584000D02*
X229757714Y-104584000D01*
X229866571Y-104656571D01*
X229939143Y-104729143D01*
X229975429Y-104801714D01*
X224169714Y-107269142D02*
X224169714Y-107631999D01*
X223407714Y-107631999D01*
X223770571Y-107015142D02*
X223770571Y-106761142D01*
X224169714Y-106652285D02*
X224169714Y-107015142D01*
X223407714Y-107015142D01*
X223407714Y-106652285D01*
X224169714Y-106325713D02*
X223407714Y-106325713D01*
X223407714Y-106144285D01*
X223444000Y-106035428D01*
X223516571Y-105962856D01*
X223589143Y-105926571D01*
X223734286Y-105890285D01*
X223843143Y-105890285D01*
X223988286Y-105926571D01*
X224060857Y-105962856D01*
X224133429Y-106035428D01*
X224169714Y-106144285D01*
X224169714Y-106325713D01*
X224242286Y-105745142D02*
X224242286Y-105164571D01*
X224169714Y-104547714D02*
X223806857Y-104801714D01*
X224169714Y-104983142D02*
X223407714Y-104983142D01*
X223407714Y-104692857D01*
X223444000Y-104620285D01*
X223480286Y-104584000D01*
X223552857Y-104547714D01*
X223661714Y-104547714D01*
X223734286Y-104584000D01*
X223770571Y-104620285D01*
X223806857Y-104692857D01*
X223806857Y-104983142D01*
X223444000Y-103822000D02*
X223407714Y-103894571D01*
X223407714Y-104003428D01*
X223444000Y-104112285D01*
X223516571Y-104184857D01*
X223589143Y-104221142D01*
X223734286Y-104257428D01*
X223843143Y-104257428D01*
X223988286Y-104221142D01*
X224060857Y-104184857D01*
X224133429Y-104112285D01*
X224169714Y-104003428D01*
X224169714Y-103930857D01*
X224133429Y-103822000D01*
X224097143Y-103785714D01*
X223843143Y-103785714D01*
X223843143Y-103930857D01*
X223770571Y-103205142D02*
X223806857Y-103096285D01*
X223843143Y-103060000D01*
X223915714Y-103023714D01*
X224024571Y-103023714D01*
X224097143Y-103060000D01*
X224133429Y-103096285D01*
X224169714Y-103168857D01*
X224169714Y-103459142D01*
X223407714Y-103459142D01*
X223407714Y-103205142D01*
X223444000Y-103132571D01*
X223480286Y-103096285D01*
X223552857Y-103060000D01*
X223625429Y-103060000D01*
X223698000Y-103096285D01*
X223734286Y-103132571D01*
X223770571Y-103205142D01*
X223770571Y-103459142D01*
X203519714Y-105527428D02*
X202757714Y-105527428D01*
X202757714Y-105346000D01*
X202794000Y-105237143D01*
X202866571Y-105164571D01*
X202939143Y-105128286D01*
X203084286Y-105092000D01*
X203193143Y-105092000D01*
X203338286Y-105128286D01*
X203410857Y-105164571D01*
X203483429Y-105237143D01*
X203519714Y-105346000D01*
X203519714Y-105527428D01*
X203519714Y-104366286D02*
X203519714Y-104801714D01*
X203519714Y-104584000D02*
X202757714Y-104584000D01*
X202866571Y-104656571D01*
X202939143Y-104729143D01*
X202975429Y-104801714D01*
X197169714Y-107269142D02*
X197169714Y-107631999D01*
X196407714Y-107631999D01*
X196770571Y-107015142D02*
X196770571Y-106761142D01*
X197169714Y-106652285D02*
X197169714Y-107015142D01*
X196407714Y-107015142D01*
X196407714Y-106652285D01*
X197169714Y-106325713D02*
X196407714Y-106325713D01*
X196407714Y-106144285D01*
X196444000Y-106035428D01*
X196516571Y-105962856D01*
X196589143Y-105926571D01*
X196734286Y-105890285D01*
X196843143Y-105890285D01*
X196988286Y-105926571D01*
X197060857Y-105962856D01*
X197133429Y-106035428D01*
X197169714Y-106144285D01*
X197169714Y-106325713D01*
X197242286Y-105745142D02*
X197242286Y-105164571D01*
X197169714Y-104547714D02*
X196806857Y-104801714D01*
X197169714Y-104983142D02*
X196407714Y-104983142D01*
X196407714Y-104692857D01*
X196444000Y-104620285D01*
X196480286Y-104584000D01*
X196552857Y-104547714D01*
X196661714Y-104547714D01*
X196734286Y-104584000D01*
X196770571Y-104620285D01*
X196806857Y-104692857D01*
X196806857Y-104983142D01*
X196444000Y-103822000D02*
X196407714Y-103894571D01*
X196407714Y-104003428D01*
X196444000Y-104112285D01*
X196516571Y-104184857D01*
X196589143Y-104221142D01*
X196734286Y-104257428D01*
X196843143Y-104257428D01*
X196988286Y-104221142D01*
X197060857Y-104184857D01*
X197133429Y-104112285D01*
X197169714Y-104003428D01*
X197169714Y-103930857D01*
X197133429Y-103822000D01*
X197097143Y-103785714D01*
X196843143Y-103785714D01*
X196843143Y-103930857D01*
X196770571Y-103205142D02*
X196806857Y-103096285D01*
X196843143Y-103060000D01*
X196915714Y-103023714D01*
X197024571Y-103023714D01*
X197097143Y-103060000D01*
X197133429Y-103096285D01*
X197169714Y-103168857D01*
X197169714Y-103459142D01*
X196407714Y-103459142D01*
X196407714Y-103205142D01*
X196444000Y-103132571D01*
X196480286Y-103096285D01*
X196552857Y-103060000D01*
X196625429Y-103060000D01*
X196698000Y-103096285D01*
X196734286Y-103132571D01*
X196770571Y-103205142D01*
X196770571Y-103459142D01*
D13*
X239602381Y-122438095D02*
X240411905Y-122438095D01*
X240507143Y-122485714D01*
X240554762Y-122533333D01*
X240602381Y-122628571D01*
X240602381Y-122819048D01*
X240554762Y-122914286D01*
X240507143Y-122961905D01*
X240411905Y-123009524D01*
X239602381Y-123009524D01*
X239602381Y-123390476D02*
X239602381Y-124009524D01*
X239983333Y-123676190D01*
X239983333Y-123819048D01*
X240030952Y-123914286D01*
X240078571Y-123961905D01*
X240173810Y-124009524D01*
X240411905Y-124009524D01*
X240507143Y-123961905D01*
X240554762Y-123914286D01*
X240602381Y-123819048D01*
X240602381Y-123533333D01*
X240554762Y-123438095D01*
X240507143Y-123390476D01*
X212602381Y-122438095D02*
X213411905Y-122438095D01*
X213507143Y-122485714D01*
X213554762Y-122533333D01*
X213602381Y-122628571D01*
X213602381Y-122819048D01*
X213554762Y-122914286D01*
X213507143Y-122961905D01*
X213411905Y-123009524D01*
X212602381Y-123009524D01*
X212602381Y-123390476D02*
X212602381Y-124009524D01*
X212983333Y-123676190D01*
X212983333Y-123819048D01*
X213030952Y-123914286D01*
X213078571Y-123961905D01*
X213173810Y-124009524D01*
X213411905Y-124009524D01*
X213507143Y-123961905D01*
X213554762Y-123914286D01*
X213602381Y-123819048D01*
X213602381Y-123533333D01*
X213554762Y-123438095D01*
X213507143Y-123390476D01*
X238838095Y-134652381D02*
X238838095Y-133652381D01*
X238457142Y-133652381D01*
X238361904Y-133700000D01*
X238314285Y-133747619D01*
X238266666Y-133842857D01*
X238266666Y-133985714D01*
X238314285Y-134080952D01*
X238361904Y-134128571D01*
X238457142Y-134176190D01*
X238838095Y-134176190D01*
X237885714Y-133747619D02*
X237838095Y-133700000D01*
X237742857Y-133652381D01*
X237504761Y-133652381D01*
X237409523Y-133700000D01*
X237361904Y-133747619D01*
X237314285Y-133842857D01*
X237314285Y-133938095D01*
X237361904Y-134080952D01*
X237933333Y-134652381D01*
X237314285Y-134652381D01*
X211838095Y-134652381D02*
X211838095Y-133652381D01*
X211457142Y-133652381D01*
X211361904Y-133700000D01*
X211314285Y-133747619D01*
X211266666Y-133842857D01*
X211266666Y-133985714D01*
X211314285Y-134080952D01*
X211361904Y-134128571D01*
X211457142Y-134176190D01*
X211838095Y-134176190D01*
X210885714Y-133747619D02*
X210838095Y-133700000D01*
X210742857Y-133652381D01*
X210504761Y-133652381D01*
X210409523Y-133700000D01*
X210361904Y-133747619D01*
X210314285Y-133842857D01*
X210314285Y-133938095D01*
X210361904Y-134080952D01*
X210933333Y-134652381D01*
X210314285Y-134652381D01*
X218266666Y-139357143D02*
X218314285Y-139404762D01*
X218457142Y-139452381D01*
X218552380Y-139452381D01*
X218695238Y-139404762D01*
X218790476Y-139309524D01*
X218838095Y-139214286D01*
X218885714Y-139023810D01*
X218885714Y-138880952D01*
X218838095Y-138690476D01*
X218790476Y-138595238D01*
X218695238Y-138500000D01*
X218552380Y-138452381D01*
X218457142Y-138452381D01*
X218314285Y-138500000D01*
X218266666Y-138547619D01*
X217314285Y-139452381D02*
X217885714Y-139452381D01*
X217600000Y-139452381D02*
X217600000Y-138452381D01*
X217695238Y-138595238D01*
X217790476Y-138690476D01*
X217885714Y-138738095D01*
X191266666Y-139357143D02*
X191314285Y-139404762D01*
X191457142Y-139452381D01*
X191552380Y-139452381D01*
X191695238Y-139404762D01*
X191790476Y-139309524D01*
X191838095Y-139214286D01*
X191885714Y-139023810D01*
X191885714Y-138880952D01*
X191838095Y-138690476D01*
X191790476Y-138595238D01*
X191695238Y-138500000D01*
X191552380Y-138452381D01*
X191457142Y-138452381D01*
X191314285Y-138500000D01*
X191266666Y-138547619D01*
X190314285Y-139452381D02*
X190885714Y-139452381D01*
X190600000Y-139452381D02*
X190600000Y-138452381D01*
X190695238Y-138595238D01*
X190790476Y-138690476D01*
X190885714Y-138738095D01*
X237416666Y-131857143D02*
X237464285Y-131904762D01*
X237607142Y-131952381D01*
X237702380Y-131952381D01*
X237845238Y-131904762D01*
X237940476Y-131809524D01*
X237988095Y-131714286D01*
X238035714Y-131523810D01*
X238035714Y-131380952D01*
X237988095Y-131190476D01*
X237940476Y-131095238D01*
X237845238Y-131000000D01*
X237702380Y-130952381D01*
X237607142Y-130952381D01*
X237464285Y-131000000D01*
X237416666Y-131047619D01*
X237035714Y-131047619D02*
X236988095Y-131000000D01*
X236892857Y-130952381D01*
X236654761Y-130952381D01*
X236559523Y-131000000D01*
X236511904Y-131047619D01*
X236464285Y-131142857D01*
X236464285Y-131238095D01*
X236511904Y-131380952D01*
X237083333Y-131952381D01*
X236464285Y-131952381D01*
X210416666Y-131857143D02*
X210464285Y-131904762D01*
X210607142Y-131952381D01*
X210702380Y-131952381D01*
X210845238Y-131904762D01*
X210940476Y-131809524D01*
X210988095Y-131714286D01*
X211035714Y-131523810D01*
X211035714Y-131380952D01*
X210988095Y-131190476D01*
X210940476Y-131095238D01*
X210845238Y-131000000D01*
X210702380Y-130952381D01*
X210607142Y-130952381D01*
X210464285Y-131000000D01*
X210416666Y-131047619D01*
X210035714Y-131047619D02*
X209988095Y-131000000D01*
X209892857Y-130952381D01*
X209654761Y-130952381D01*
X209559523Y-131000000D01*
X209511904Y-131047619D01*
X209464285Y-131142857D01*
X209464285Y-131238095D01*
X209511904Y-131380952D01*
X210083333Y-131952381D01*
X209464285Y-131952381D01*
X235261905Y-132902381D02*
X235261905Y-133711905D01*
X235214286Y-133807143D01*
X235166667Y-133854762D01*
X235071429Y-133902381D01*
X234880952Y-133902381D01*
X234785714Y-133854762D01*
X234738095Y-133807143D01*
X234690476Y-133711905D01*
X234690476Y-132902381D01*
X233690476Y-133902381D02*
X234261905Y-133902381D01*
X233976191Y-133902381D02*
X233976191Y-132902381D01*
X234071429Y-133045238D01*
X234166667Y-133140476D01*
X234261905Y-133188095D01*
X208261905Y-132902381D02*
X208261905Y-133711905D01*
X208214286Y-133807143D01*
X208166667Y-133854762D01*
X208071429Y-133902381D01*
X207880952Y-133902381D01*
X207785714Y-133854762D01*
X207738095Y-133807143D01*
X207690476Y-133711905D01*
X207690476Y-132902381D01*
X206690476Y-133902381D02*
X207261905Y-133902381D01*
X206976191Y-133902381D02*
X206976191Y-132902381D01*
X207071429Y-133045238D01*
X207166667Y-133140476D01*
X207261905Y-133188095D01*
X237416666Y-131152381D02*
X237750000Y-130676190D01*
X237988095Y-131152381D02*
X237988095Y-130152381D01*
X237607142Y-130152381D01*
X237511904Y-130200000D01*
X237464285Y-130247619D01*
X237416666Y-130342857D01*
X237416666Y-130485714D01*
X237464285Y-130580952D01*
X237511904Y-130628571D01*
X237607142Y-130676190D01*
X237988095Y-130676190D01*
X236464285Y-131152381D02*
X237035714Y-131152381D01*
X236750000Y-131152381D02*
X236750000Y-130152381D01*
X236845238Y-130295238D01*
X236940476Y-130390476D01*
X237035714Y-130438095D01*
X210416666Y-131152381D02*
X210750000Y-130676190D01*
X210988095Y-131152381D02*
X210988095Y-130152381D01*
X210607142Y-130152381D01*
X210511904Y-130200000D01*
X210464285Y-130247619D01*
X210416666Y-130342857D01*
X210416666Y-130485714D01*
X210464285Y-130580952D01*
X210511904Y-130628571D01*
X210607142Y-130676190D01*
X210988095Y-130676190D01*
X209464285Y-131152381D02*
X210035714Y-131152381D01*
X209750000Y-131152381D02*
X209750000Y-130152381D01*
X209845238Y-130295238D01*
X209940476Y-130390476D01*
X210035714Y-130438095D01*
X235916666Y-117457143D02*
X235964285Y-117504762D01*
X236107142Y-117552381D01*
X236202380Y-117552381D01*
X236345238Y-117504762D01*
X236440476Y-117409524D01*
X236488095Y-117314286D01*
X236535714Y-117123810D01*
X236535714Y-116980952D01*
X236488095Y-116790476D01*
X236440476Y-116695238D01*
X236345238Y-116600000D01*
X236202380Y-116552381D01*
X236107142Y-116552381D01*
X235964285Y-116600000D01*
X235916666Y-116647619D01*
X235011904Y-116552381D02*
X235488095Y-116552381D01*
X235535714Y-117028571D01*
X235488095Y-116980952D01*
X235392857Y-116933333D01*
X235154761Y-116933333D01*
X235059523Y-116980952D01*
X235011904Y-117028571D01*
X234964285Y-117123810D01*
X234964285Y-117361905D01*
X235011904Y-117457143D01*
X235059523Y-117504762D01*
X235154761Y-117552381D01*
X235392857Y-117552381D01*
X235488095Y-117504762D01*
X235535714Y-117457143D01*
X208916666Y-117457143D02*
X208964285Y-117504762D01*
X209107142Y-117552381D01*
X209202380Y-117552381D01*
X209345238Y-117504762D01*
X209440476Y-117409524D01*
X209488095Y-117314286D01*
X209535714Y-117123810D01*
X209535714Y-116980952D01*
X209488095Y-116790476D01*
X209440476Y-116695238D01*
X209345238Y-116600000D01*
X209202380Y-116552381D01*
X209107142Y-116552381D01*
X208964285Y-116600000D01*
X208916666Y-116647619D01*
X208011904Y-116552381D02*
X208488095Y-116552381D01*
X208535714Y-117028571D01*
X208488095Y-116980952D01*
X208392857Y-116933333D01*
X208154761Y-116933333D01*
X208059523Y-116980952D01*
X208011904Y-117028571D01*
X207964285Y-117123810D01*
X207964285Y-117361905D01*
X208011904Y-117457143D01*
X208059523Y-117504762D01*
X208154761Y-117552381D01*
X208392857Y-117552381D01*
X208488095Y-117504762D01*
X208535714Y-117457143D01*
X236066666Y-126082143D02*
X236114285Y-126129762D01*
X236257142Y-126177381D01*
X236352380Y-126177381D01*
X236495238Y-126129762D01*
X236590476Y-126034524D01*
X236638095Y-125939286D01*
X236685714Y-125748810D01*
X236685714Y-125605952D01*
X236638095Y-125415476D01*
X236590476Y-125320238D01*
X236495238Y-125225000D01*
X236352380Y-125177381D01*
X236257142Y-125177381D01*
X236114285Y-125225000D01*
X236066666Y-125272619D01*
X235209523Y-125510714D02*
X235209523Y-126177381D01*
X235447619Y-125129762D02*
X235685714Y-125844048D01*
X235066666Y-125844048D01*
X209066666Y-126082143D02*
X209114285Y-126129762D01*
X209257142Y-126177381D01*
X209352380Y-126177381D01*
X209495238Y-126129762D01*
X209590476Y-126034524D01*
X209638095Y-125939286D01*
X209685714Y-125748810D01*
X209685714Y-125605952D01*
X209638095Y-125415476D01*
X209590476Y-125320238D01*
X209495238Y-125225000D01*
X209352380Y-125177381D01*
X209257142Y-125177381D01*
X209114285Y-125225000D01*
X209066666Y-125272619D01*
X208209523Y-125510714D02*
X208209523Y-126177381D01*
X208447619Y-125129762D02*
X208685714Y-125844048D01*
X208066666Y-125844048D01*
X217666666Y-116807143D02*
X217714285Y-116854762D01*
X217857142Y-116902381D01*
X217952380Y-116902381D01*
X218095238Y-116854762D01*
X218190476Y-116759524D01*
X218238095Y-116664286D01*
X218285714Y-116473810D01*
X218285714Y-116330952D01*
X218238095Y-116140476D01*
X218190476Y-116045238D01*
X218095238Y-115950000D01*
X217952380Y-115902381D01*
X217857142Y-115902381D01*
X217714285Y-115950000D01*
X217666666Y-115997619D01*
X217333333Y-115902381D02*
X216714285Y-115902381D01*
X217047619Y-116283333D01*
X216904761Y-116283333D01*
X216809523Y-116330952D01*
X216761904Y-116378571D01*
X216714285Y-116473810D01*
X216714285Y-116711905D01*
X216761904Y-116807143D01*
X216809523Y-116854762D01*
X216904761Y-116902381D01*
X217190476Y-116902381D01*
X217285714Y-116854762D01*
X217333333Y-116807143D01*
X190666666Y-116807143D02*
X190714285Y-116854762D01*
X190857142Y-116902381D01*
X190952380Y-116902381D01*
X191095238Y-116854762D01*
X191190476Y-116759524D01*
X191238095Y-116664286D01*
X191285714Y-116473810D01*
X191285714Y-116330952D01*
X191238095Y-116140476D01*
X191190476Y-116045238D01*
X191095238Y-115950000D01*
X190952380Y-115902381D01*
X190857142Y-115902381D01*
X190714285Y-115950000D01*
X190666666Y-115997619D01*
X190333333Y-115902381D02*
X189714285Y-115902381D01*
X190047619Y-116283333D01*
X189904761Y-116283333D01*
X189809523Y-116330952D01*
X189761904Y-116378571D01*
X189714285Y-116473810D01*
X189714285Y-116711905D01*
X189761904Y-116807143D01*
X189809523Y-116854762D01*
X189904761Y-116902381D01*
X190190476Y-116902381D01*
X190285714Y-116854762D01*
X190333333Y-116807143D01*
X236785714Y-118928571D02*
X236642857Y-118976190D01*
X236595238Y-119023810D01*
X236547619Y-119119048D01*
X236547619Y-119261905D01*
X236595238Y-119357143D01*
X236642857Y-119404762D01*
X236738095Y-119452381D01*
X237119048Y-119452381D01*
X237119048Y-118452381D01*
X236785714Y-118452381D01*
X236690476Y-118500000D01*
X236642857Y-118547619D01*
X236595238Y-118642857D01*
X236595238Y-118738095D01*
X236642857Y-118833333D01*
X236690476Y-118880952D01*
X236785714Y-118928571D01*
X237119048Y-118928571D01*
X236261905Y-118452381D02*
X235690476Y-118452381D01*
X235976191Y-119452381D02*
X235976191Y-118452381D01*
X234833333Y-119452381D02*
X235404762Y-119452381D01*
X235119048Y-119452381D02*
X235119048Y-118452381D01*
X235214286Y-118595238D01*
X235309524Y-118690476D01*
X235404762Y-118738095D01*
X209785714Y-118928571D02*
X209642857Y-118976190D01*
X209595238Y-119023810D01*
X209547619Y-119119048D01*
X209547619Y-119261905D01*
X209595238Y-119357143D01*
X209642857Y-119404762D01*
X209738095Y-119452381D01*
X210119048Y-119452381D01*
X210119048Y-118452381D01*
X209785714Y-118452381D01*
X209690476Y-118500000D01*
X209642857Y-118547619D01*
X209595238Y-118642857D01*
X209595238Y-118738095D01*
X209642857Y-118833333D01*
X209690476Y-118880952D01*
X209785714Y-118928571D01*
X210119048Y-118928571D01*
X209261905Y-118452381D02*
X208690476Y-118452381D01*
X208976191Y-119452381D02*
X208976191Y-118452381D01*
X207833333Y-119452381D02*
X208404762Y-119452381D01*
X208119048Y-119452381D02*
X208119048Y-118452381D01*
X208214286Y-118595238D01*
X208309524Y-118690476D01*
X208404762Y-118738095D01*
X245785714Y-80928571D02*
X245642857Y-80976190D01*
X245595238Y-81023810D01*
X245547619Y-81119048D01*
X245547619Y-81261905D01*
X245595238Y-81357143D01*
X245642857Y-81404762D01*
X245738095Y-81452381D01*
X246119048Y-81452381D01*
X246119048Y-80452381D01*
X245785714Y-80452381D01*
X245690476Y-80500000D01*
X245642857Y-80547619D01*
X245595238Y-80642857D01*
X245595238Y-80738095D01*
X245642857Y-80833333D01*
X245690476Y-80880952D01*
X245785714Y-80928571D01*
X246119048Y-80928571D01*
X245261905Y-80452381D02*
X244690476Y-80452381D01*
X244976191Y-81452381D02*
X244976191Y-80452381D01*
X243833333Y-81452381D02*
X244404762Y-81452381D01*
X244119048Y-81452381D02*
X244119048Y-80452381D01*
X244214286Y-80595238D01*
X244309524Y-80690476D01*
X244404762Y-80738095D01*
X218785714Y-80928571D02*
X218642857Y-80976190D01*
X218595238Y-81023810D01*
X218547619Y-81119048D01*
X218547619Y-81261905D01*
X218595238Y-81357143D01*
X218642857Y-81404762D01*
X218738095Y-81452381D01*
X219119048Y-81452381D01*
X219119048Y-80452381D01*
X218785714Y-80452381D01*
X218690476Y-80500000D01*
X218642857Y-80547619D01*
X218595238Y-80642857D01*
X218595238Y-80738095D01*
X218642857Y-80833333D01*
X218690476Y-80880952D01*
X218785714Y-80928571D01*
X219119048Y-80928571D01*
X218261905Y-80452381D02*
X217690476Y-80452381D01*
X217976191Y-81452381D02*
X217976191Y-80452381D01*
X216833333Y-81452381D02*
X217404762Y-81452381D01*
X217119048Y-81452381D02*
X217119048Y-80452381D01*
X217214286Y-80595238D01*
X217309524Y-80690476D01*
X217404762Y-80738095D01*
X263666666Y-83907143D02*
X263714285Y-83954762D01*
X263857142Y-84002381D01*
X263952380Y-84002381D01*
X264095238Y-83954762D01*
X264190476Y-83859524D01*
X264238095Y-83764286D01*
X264285714Y-83573810D01*
X264285714Y-83430952D01*
X264238095Y-83240476D01*
X264190476Y-83145238D01*
X264095238Y-83050000D01*
X263952380Y-83002381D01*
X263857142Y-83002381D01*
X263714285Y-83050000D01*
X263666666Y-83097619D01*
X263333333Y-83002381D02*
X262714285Y-83002381D01*
X263047619Y-83383333D01*
X262904761Y-83383333D01*
X262809523Y-83430952D01*
X262761904Y-83478571D01*
X262714285Y-83573810D01*
X262714285Y-83811905D01*
X262761904Y-83907143D01*
X262809523Y-83954762D01*
X262904761Y-84002381D01*
X263190476Y-84002381D01*
X263285714Y-83954762D01*
X263333333Y-83907143D01*
X236666666Y-83907143D02*
X236714285Y-83954762D01*
X236857142Y-84002381D01*
X236952380Y-84002381D01*
X237095238Y-83954762D01*
X237190476Y-83859524D01*
X237238095Y-83764286D01*
X237285714Y-83573810D01*
X237285714Y-83430952D01*
X237238095Y-83240476D01*
X237190476Y-83145238D01*
X237095238Y-83050000D01*
X236952380Y-83002381D01*
X236857142Y-83002381D01*
X236714285Y-83050000D01*
X236666666Y-83097619D01*
X236333333Y-83002381D02*
X235714285Y-83002381D01*
X236047619Y-83383333D01*
X235904761Y-83383333D01*
X235809523Y-83430952D01*
X235761904Y-83478571D01*
X235714285Y-83573810D01*
X235714285Y-83811905D01*
X235761904Y-83907143D01*
X235809523Y-83954762D01*
X235904761Y-84002381D01*
X236190476Y-84002381D01*
X236285714Y-83954762D01*
X236333333Y-83907143D01*
X245266666Y-74632143D02*
X245314285Y-74679762D01*
X245457142Y-74727381D01*
X245552380Y-74727381D01*
X245695238Y-74679762D01*
X245790476Y-74584524D01*
X245838095Y-74489286D01*
X245885714Y-74298810D01*
X245885714Y-74155952D01*
X245838095Y-73965476D01*
X245790476Y-73870238D01*
X245695238Y-73775000D01*
X245552380Y-73727381D01*
X245457142Y-73727381D01*
X245314285Y-73775000D01*
X245266666Y-73822619D01*
X244409523Y-74060714D02*
X244409523Y-74727381D01*
X244647619Y-73679762D02*
X244885714Y-74394048D01*
X244266666Y-74394048D01*
X218266666Y-74632143D02*
X218314285Y-74679762D01*
X218457142Y-74727381D01*
X218552380Y-74727381D01*
X218695238Y-74679762D01*
X218790476Y-74584524D01*
X218838095Y-74489286D01*
X218885714Y-74298810D01*
X218885714Y-74155952D01*
X218838095Y-73965476D01*
X218790476Y-73870238D01*
X218695238Y-73775000D01*
X218552380Y-73727381D01*
X218457142Y-73727381D01*
X218314285Y-73775000D01*
X218266666Y-73822619D01*
X217409523Y-74060714D02*
X217409523Y-74727381D01*
X217647619Y-73679762D02*
X217885714Y-74394048D01*
X217266666Y-74394048D01*
X245416666Y-83257143D02*
X245464285Y-83304762D01*
X245607142Y-83352381D01*
X245702380Y-83352381D01*
X245845238Y-83304762D01*
X245940476Y-83209524D01*
X245988095Y-83114286D01*
X246035714Y-82923810D01*
X246035714Y-82780952D01*
X245988095Y-82590476D01*
X245940476Y-82495238D01*
X245845238Y-82400000D01*
X245702380Y-82352381D01*
X245607142Y-82352381D01*
X245464285Y-82400000D01*
X245416666Y-82447619D01*
X244511904Y-82352381D02*
X244988095Y-82352381D01*
X245035714Y-82828571D01*
X244988095Y-82780952D01*
X244892857Y-82733333D01*
X244654761Y-82733333D01*
X244559523Y-82780952D01*
X244511904Y-82828571D01*
X244464285Y-82923810D01*
X244464285Y-83161905D01*
X244511904Y-83257143D01*
X244559523Y-83304762D01*
X244654761Y-83352381D01*
X244892857Y-83352381D01*
X244988095Y-83304762D01*
X245035714Y-83257143D01*
X218416666Y-83257143D02*
X218464285Y-83304762D01*
X218607142Y-83352381D01*
X218702380Y-83352381D01*
X218845238Y-83304762D01*
X218940476Y-83209524D01*
X218988095Y-83114286D01*
X219035714Y-82923810D01*
X219035714Y-82780952D01*
X218988095Y-82590476D01*
X218940476Y-82495238D01*
X218845238Y-82400000D01*
X218702380Y-82352381D01*
X218607142Y-82352381D01*
X218464285Y-82400000D01*
X218416666Y-82447619D01*
X217511904Y-82352381D02*
X217988095Y-82352381D01*
X218035714Y-82828571D01*
X217988095Y-82780952D01*
X217892857Y-82733333D01*
X217654761Y-82733333D01*
X217559523Y-82780952D01*
X217511904Y-82828571D01*
X217464285Y-82923810D01*
X217464285Y-83161905D01*
X217511904Y-83257143D01*
X217559523Y-83304762D01*
X217654761Y-83352381D01*
X217892857Y-83352381D01*
X217988095Y-83304762D01*
X218035714Y-83257143D01*
X243916666Y-69752381D02*
X244250000Y-69276190D01*
X244488095Y-69752381D02*
X244488095Y-68752381D01*
X244107142Y-68752381D01*
X244011904Y-68800000D01*
X243964285Y-68847619D01*
X243916666Y-68942857D01*
X243916666Y-69085714D01*
X243964285Y-69180952D01*
X244011904Y-69228571D01*
X244107142Y-69276190D01*
X244488095Y-69276190D01*
X242964285Y-69752381D02*
X243535714Y-69752381D01*
X243250000Y-69752381D02*
X243250000Y-68752381D01*
X243345238Y-68895238D01*
X243440476Y-68990476D01*
X243535714Y-69038095D01*
X216916666Y-69752381D02*
X217250000Y-69276190D01*
X217488095Y-69752381D02*
X217488095Y-68752381D01*
X217107142Y-68752381D01*
X217011904Y-68800000D01*
X216964285Y-68847619D01*
X216916666Y-68942857D01*
X216916666Y-69085714D01*
X216964285Y-69180952D01*
X217011904Y-69228571D01*
X217107142Y-69276190D01*
X217488095Y-69276190D01*
X215964285Y-69752381D02*
X216535714Y-69752381D01*
X216250000Y-69752381D02*
X216250000Y-68752381D01*
X216345238Y-68895238D01*
X216440476Y-68990476D01*
X216535714Y-69038095D01*
X247261905Y-66002381D02*
X247261905Y-66811905D01*
X247214286Y-66907143D01*
X247166667Y-66954762D01*
X247071429Y-67002381D01*
X246880952Y-67002381D01*
X246785714Y-66954762D01*
X246738095Y-66907143D01*
X246690476Y-66811905D01*
X246690476Y-66002381D01*
X245690476Y-67002381D02*
X246261905Y-67002381D01*
X245976191Y-67002381D02*
X245976191Y-66002381D01*
X246071429Y-66145238D01*
X246166667Y-66240476D01*
X246261905Y-66288095D01*
X220261905Y-66002381D02*
X220261905Y-66811905D01*
X220214286Y-66907143D01*
X220166667Y-66954762D01*
X220071429Y-67002381D01*
X219880952Y-67002381D01*
X219785714Y-66954762D01*
X219738095Y-66907143D01*
X219690476Y-66811905D01*
X219690476Y-66002381D01*
X218690476Y-67002381D02*
X219261905Y-67002381D01*
X218976191Y-67002381D02*
X218976191Y-66002381D01*
X219071429Y-66145238D01*
X219166667Y-66240476D01*
X219261905Y-66288095D01*
X243916666Y-68857143D02*
X243964285Y-68904762D01*
X244107142Y-68952381D01*
X244202380Y-68952381D01*
X244345238Y-68904762D01*
X244440476Y-68809524D01*
X244488095Y-68714286D01*
X244535714Y-68523810D01*
X244535714Y-68380952D01*
X244488095Y-68190476D01*
X244440476Y-68095238D01*
X244345238Y-68000000D01*
X244202380Y-67952381D01*
X244107142Y-67952381D01*
X243964285Y-68000000D01*
X243916666Y-68047619D01*
X243535714Y-68047619D02*
X243488095Y-68000000D01*
X243392857Y-67952381D01*
X243154761Y-67952381D01*
X243059523Y-68000000D01*
X243011904Y-68047619D01*
X242964285Y-68142857D01*
X242964285Y-68238095D01*
X243011904Y-68380952D01*
X243583333Y-68952381D01*
X242964285Y-68952381D01*
X216916666Y-68857143D02*
X216964285Y-68904762D01*
X217107142Y-68952381D01*
X217202380Y-68952381D01*
X217345238Y-68904762D01*
X217440476Y-68809524D01*
X217488095Y-68714286D01*
X217535714Y-68523810D01*
X217535714Y-68380952D01*
X217488095Y-68190476D01*
X217440476Y-68095238D01*
X217345238Y-68000000D01*
X217202380Y-67952381D01*
X217107142Y-67952381D01*
X216964285Y-68000000D01*
X216916666Y-68047619D01*
X216535714Y-68047619D02*
X216488095Y-68000000D01*
X216392857Y-67952381D01*
X216154761Y-67952381D01*
X216059523Y-68000000D01*
X216011904Y-68047619D01*
X215964285Y-68142857D01*
X215964285Y-68238095D01*
X216011904Y-68380952D01*
X216583333Y-68952381D01*
X215964285Y-68952381D01*
X263066666Y-61357143D02*
X263114285Y-61404762D01*
X263257142Y-61452381D01*
X263352380Y-61452381D01*
X263495238Y-61404762D01*
X263590476Y-61309524D01*
X263638095Y-61214286D01*
X263685714Y-61023810D01*
X263685714Y-60880952D01*
X263638095Y-60690476D01*
X263590476Y-60595238D01*
X263495238Y-60500000D01*
X263352380Y-60452381D01*
X263257142Y-60452381D01*
X263114285Y-60500000D01*
X263066666Y-60547619D01*
X262114285Y-61452381D02*
X262685714Y-61452381D01*
X262400000Y-61452381D02*
X262400000Y-60452381D01*
X262495238Y-60595238D01*
X262590476Y-60690476D01*
X262685714Y-60738095D01*
X236066666Y-61357143D02*
X236114285Y-61404762D01*
X236257142Y-61452381D01*
X236352380Y-61452381D01*
X236495238Y-61404762D01*
X236590476Y-61309524D01*
X236638095Y-61214286D01*
X236685714Y-61023810D01*
X236685714Y-60880952D01*
X236638095Y-60690476D01*
X236590476Y-60595238D01*
X236495238Y-60500000D01*
X236352380Y-60452381D01*
X236257142Y-60452381D01*
X236114285Y-60500000D01*
X236066666Y-60547619D01*
X235114285Y-61452381D02*
X235685714Y-61452381D01*
X235400000Y-61452381D02*
X235400000Y-60452381D01*
X235495238Y-60595238D01*
X235590476Y-60690476D01*
X235685714Y-60738095D01*
X243638095Y-66252381D02*
X243638095Y-65252381D01*
X243257142Y-65252381D01*
X243161904Y-65300000D01*
X243114285Y-65347619D01*
X243066666Y-65442857D01*
X243066666Y-65585714D01*
X243114285Y-65680952D01*
X243161904Y-65728571D01*
X243257142Y-65776190D01*
X243638095Y-65776190D01*
X242685714Y-65347619D02*
X242638095Y-65300000D01*
X242542857Y-65252381D01*
X242304761Y-65252381D01*
X242209523Y-65300000D01*
X242161904Y-65347619D01*
X242114285Y-65442857D01*
X242114285Y-65538095D01*
X242161904Y-65680952D01*
X242733333Y-66252381D01*
X242114285Y-66252381D01*
X216638095Y-66252381D02*
X216638095Y-65252381D01*
X216257142Y-65252381D01*
X216161904Y-65300000D01*
X216114285Y-65347619D01*
X216066666Y-65442857D01*
X216066666Y-65585714D01*
X216114285Y-65680952D01*
X216161904Y-65728571D01*
X216257142Y-65776190D01*
X216638095Y-65776190D01*
X215685714Y-65347619D02*
X215638095Y-65300000D01*
X215542857Y-65252381D01*
X215304761Y-65252381D01*
X215209523Y-65300000D01*
X215161904Y-65347619D01*
X215114285Y-65442857D01*
X215114285Y-65538095D01*
X215161904Y-65680952D01*
X215733333Y-66252381D01*
X215114285Y-66252381D01*
X240302381Y-76038095D02*
X241111905Y-76038095D01*
X241207143Y-76085714D01*
X241254762Y-76133333D01*
X241302381Y-76228571D01*
X241302381Y-76419048D01*
X241254762Y-76514286D01*
X241207143Y-76561905D01*
X241111905Y-76609524D01*
X240302381Y-76609524D01*
X240302381Y-76990476D02*
X240302381Y-77609524D01*
X240683333Y-77276190D01*
X240683333Y-77419048D01*
X240730952Y-77514286D01*
X240778571Y-77561905D01*
X240873810Y-77609524D01*
X241111905Y-77609524D01*
X241207143Y-77561905D01*
X241254762Y-77514286D01*
X241302381Y-77419048D01*
X241302381Y-77133333D01*
X241254762Y-77038095D01*
X241207143Y-76990476D01*
X213302381Y-76038095D02*
X214111905Y-76038095D01*
X214207143Y-76085714D01*
X214254762Y-76133333D01*
X214302381Y-76228571D01*
X214302381Y-76419048D01*
X214254762Y-76514286D01*
X214207143Y-76561905D01*
X214111905Y-76609524D01*
X213302381Y-76609524D01*
X213302381Y-76990476D02*
X213302381Y-77609524D01*
X213683333Y-77276190D01*
X213683333Y-77419048D01*
X213730952Y-77514286D01*
X213778571Y-77561905D01*
X213873810Y-77609524D01*
X214111905Y-77609524D01*
X214207143Y-77561905D01*
X214254762Y-77514286D01*
X214302381Y-77419048D01*
X214302381Y-77133333D01*
X214254762Y-77038095D01*
X214207143Y-76990476D01*
D15*
X251169714Y-95597428D02*
X250407714Y-95597428D01*
X250407714Y-95416000D01*
X250444000Y-95307143D01*
X250516571Y-95234571D01*
X250589143Y-95198286D01*
X250734286Y-95162000D01*
X250843143Y-95162000D01*
X250988286Y-95198286D01*
X251060857Y-95234571D01*
X251133429Y-95307143D01*
X251169714Y-95416000D01*
X251169714Y-95597428D01*
X251169714Y-94436286D02*
X251169714Y-94871714D01*
X251169714Y-94654000D02*
X250407714Y-94654000D01*
X250516571Y-94726571D01*
X250589143Y-94799143D01*
X250625429Y-94871714D01*
X257519714Y-96577142D02*
X257519714Y-96939999D01*
X256757714Y-96939999D01*
X257120571Y-96323142D02*
X257120571Y-96069142D01*
X257519714Y-95960285D02*
X257519714Y-96323142D01*
X256757714Y-96323142D01*
X256757714Y-95960285D01*
X257519714Y-95633713D02*
X256757714Y-95633713D01*
X256757714Y-95452285D01*
X256794000Y-95343428D01*
X256866571Y-95270856D01*
X256939143Y-95234571D01*
X257084286Y-95198285D01*
X257193143Y-95198285D01*
X257338286Y-95234571D01*
X257410857Y-95270856D01*
X257483429Y-95343428D01*
X257519714Y-95452285D01*
X257519714Y-95633713D01*
X257592286Y-95053142D02*
X257592286Y-94472571D01*
X257519714Y-93855714D02*
X257156857Y-94109714D01*
X257519714Y-94291142D02*
X256757714Y-94291142D01*
X256757714Y-94000857D01*
X256794000Y-93928285D01*
X256830286Y-93892000D01*
X256902857Y-93855714D01*
X257011714Y-93855714D01*
X257084286Y-93892000D01*
X257120571Y-93928285D01*
X257156857Y-94000857D01*
X257156857Y-94291142D01*
X256794000Y-93130000D02*
X256757714Y-93202571D01*
X256757714Y-93311428D01*
X256794000Y-93420285D01*
X256866571Y-93492857D01*
X256939143Y-93529142D01*
X257084286Y-93565428D01*
X257193143Y-93565428D01*
X257338286Y-93529142D01*
X257410857Y-93492857D01*
X257483429Y-93420285D01*
X257519714Y-93311428D01*
X257519714Y-93238857D01*
X257483429Y-93130000D01*
X257447143Y-93093714D01*
X257193143Y-93093714D01*
X257193143Y-93238857D01*
X257120571Y-92513142D02*
X257156857Y-92404285D01*
X257193143Y-92368000D01*
X257265714Y-92331714D01*
X257374571Y-92331714D01*
X257447143Y-92368000D01*
X257483429Y-92404285D01*
X257519714Y-92476857D01*
X257519714Y-92767142D01*
X256757714Y-92767142D01*
X256757714Y-92513142D01*
X256794000Y-92440571D01*
X256830286Y-92404285D01*
X256902857Y-92368000D01*
X256975429Y-92368000D01*
X257048000Y-92404285D01*
X257084286Y-92440571D01*
X257120571Y-92513142D01*
X257120571Y-92767142D01*
X224169714Y-95597428D02*
X223407714Y-95597428D01*
X223407714Y-95416000D01*
X223444000Y-95307143D01*
X223516571Y-95234571D01*
X223589143Y-95198286D01*
X223734286Y-95162000D01*
X223843143Y-95162000D01*
X223988286Y-95198286D01*
X224060857Y-95234571D01*
X224133429Y-95307143D01*
X224169714Y-95416000D01*
X224169714Y-95597428D01*
X224169714Y-94436286D02*
X224169714Y-94871714D01*
X224169714Y-94654000D02*
X223407714Y-94654000D01*
X223516571Y-94726571D01*
X223589143Y-94799143D01*
X223625429Y-94871714D01*
X230519714Y-96577142D02*
X230519714Y-96939999D01*
X229757714Y-96939999D01*
X230120571Y-96323142D02*
X230120571Y-96069142D01*
X230519714Y-95960285D02*
X230519714Y-96323142D01*
X229757714Y-96323142D01*
X229757714Y-95960285D01*
X230519714Y-95633713D02*
X229757714Y-95633713D01*
X229757714Y-95452285D01*
X229794000Y-95343428D01*
X229866571Y-95270856D01*
X229939143Y-95234571D01*
X230084286Y-95198285D01*
X230193143Y-95198285D01*
X230338286Y-95234571D01*
X230410857Y-95270856D01*
X230483429Y-95343428D01*
X230519714Y-95452285D01*
X230519714Y-95633713D01*
X230592286Y-95053142D02*
X230592286Y-94472571D01*
X230519714Y-93855714D02*
X230156857Y-94109714D01*
X230519714Y-94291142D02*
X229757714Y-94291142D01*
X229757714Y-94000857D01*
X229794000Y-93928285D01*
X229830286Y-93892000D01*
X229902857Y-93855714D01*
X230011714Y-93855714D01*
X230084286Y-93892000D01*
X230120571Y-93928285D01*
X230156857Y-94000857D01*
X230156857Y-94291142D01*
X229794000Y-93130000D02*
X229757714Y-93202571D01*
X229757714Y-93311428D01*
X229794000Y-93420285D01*
X229866571Y-93492857D01*
X229939143Y-93529142D01*
X230084286Y-93565428D01*
X230193143Y-93565428D01*
X230338286Y-93529142D01*
X230410857Y-93492857D01*
X230483429Y-93420285D01*
X230519714Y-93311428D01*
X230519714Y-93238857D01*
X230483429Y-93130000D01*
X230447143Y-93093714D01*
X230193143Y-93093714D01*
X230193143Y-93238857D01*
X230120571Y-92513142D02*
X230156857Y-92404285D01*
X230193143Y-92368000D01*
X230265714Y-92331714D01*
X230374571Y-92331714D01*
X230447143Y-92368000D01*
X230483429Y-92404285D01*
X230519714Y-92476857D01*
X230519714Y-92767142D01*
X229757714Y-92767142D01*
X229757714Y-92513142D01*
X229794000Y-92440571D01*
X229830286Y-92404285D01*
X229902857Y-92368000D01*
X229975429Y-92368000D01*
X230048000Y-92404285D01*
X230084286Y-92440571D01*
X230120571Y-92513142D01*
X230120571Y-92767142D01*
D13*
X186302381Y-76038095D02*
X187111905Y-76038095D01*
X187207143Y-76085714D01*
X187254762Y-76133333D01*
X187302381Y-76228571D01*
X187302381Y-76419048D01*
X187254762Y-76514286D01*
X187207143Y-76561905D01*
X187111905Y-76609524D01*
X186302381Y-76609524D01*
X186302381Y-76990476D02*
X186302381Y-77609524D01*
X186683333Y-77276190D01*
X186683333Y-77419048D01*
X186730952Y-77514286D01*
X186778571Y-77561905D01*
X186873810Y-77609524D01*
X187111905Y-77609524D01*
X187207143Y-77561905D01*
X187254762Y-77514286D01*
X187302381Y-77419048D01*
X187302381Y-77133333D01*
X187254762Y-77038095D01*
X187207143Y-76990476D01*
X189916666Y-69752381D02*
X190250000Y-69276190D01*
X190488095Y-69752381D02*
X190488095Y-68752381D01*
X190107142Y-68752381D01*
X190011904Y-68800000D01*
X189964285Y-68847619D01*
X189916666Y-68942857D01*
X189916666Y-69085714D01*
X189964285Y-69180952D01*
X190011904Y-69228571D01*
X190107142Y-69276190D01*
X190488095Y-69276190D01*
X188964285Y-69752381D02*
X189535714Y-69752381D01*
X189250000Y-69752381D02*
X189250000Y-68752381D01*
X189345238Y-68895238D01*
X189440476Y-68990476D01*
X189535714Y-69038095D01*
X189916666Y-68857143D02*
X189964285Y-68904762D01*
X190107142Y-68952381D01*
X190202380Y-68952381D01*
X190345238Y-68904762D01*
X190440476Y-68809524D01*
X190488095Y-68714286D01*
X190535714Y-68523810D01*
X190535714Y-68380952D01*
X190488095Y-68190476D01*
X190440476Y-68095238D01*
X190345238Y-68000000D01*
X190202380Y-67952381D01*
X190107142Y-67952381D01*
X189964285Y-68000000D01*
X189916666Y-68047619D01*
X189535714Y-68047619D02*
X189488095Y-68000000D01*
X189392857Y-67952381D01*
X189154761Y-67952381D01*
X189059523Y-68000000D01*
X189011904Y-68047619D01*
X188964285Y-68142857D01*
X188964285Y-68238095D01*
X189011904Y-68380952D01*
X189583333Y-68952381D01*
X188964285Y-68952381D01*
X209066666Y-61357143D02*
X209114285Y-61404762D01*
X209257142Y-61452381D01*
X209352380Y-61452381D01*
X209495238Y-61404762D01*
X209590476Y-61309524D01*
X209638095Y-61214286D01*
X209685714Y-61023810D01*
X209685714Y-60880952D01*
X209638095Y-60690476D01*
X209590476Y-60595238D01*
X209495238Y-60500000D01*
X209352380Y-60452381D01*
X209257142Y-60452381D01*
X209114285Y-60500000D01*
X209066666Y-60547619D01*
X208114285Y-61452381D02*
X208685714Y-61452381D01*
X208400000Y-61452381D02*
X208400000Y-60452381D01*
X208495238Y-60595238D01*
X208590476Y-60690476D01*
X208685714Y-60738095D01*
X193261905Y-66002381D02*
X193261905Y-66811905D01*
X193214286Y-66907143D01*
X193166667Y-66954762D01*
X193071429Y-67002381D01*
X192880952Y-67002381D01*
X192785714Y-66954762D01*
X192738095Y-66907143D01*
X192690476Y-66811905D01*
X192690476Y-66002381D01*
X191690476Y-67002381D02*
X192261905Y-67002381D01*
X191976191Y-67002381D02*
X191976191Y-66002381D01*
X192071429Y-66145238D01*
X192166667Y-66240476D01*
X192261905Y-66288095D01*
X189638095Y-66252381D02*
X189638095Y-65252381D01*
X189257142Y-65252381D01*
X189161904Y-65300000D01*
X189114285Y-65347619D01*
X189066666Y-65442857D01*
X189066666Y-65585714D01*
X189114285Y-65680952D01*
X189161904Y-65728571D01*
X189257142Y-65776190D01*
X189638095Y-65776190D01*
X188685714Y-65347619D02*
X188638095Y-65300000D01*
X188542857Y-65252381D01*
X188304761Y-65252381D01*
X188209523Y-65300000D01*
X188161904Y-65347619D01*
X188114285Y-65442857D01*
X188114285Y-65538095D01*
X188161904Y-65680952D01*
X188733333Y-66252381D01*
X188114285Y-66252381D01*
X191416666Y-83257143D02*
X191464285Y-83304762D01*
X191607142Y-83352381D01*
X191702380Y-83352381D01*
X191845238Y-83304762D01*
X191940476Y-83209524D01*
X191988095Y-83114286D01*
X192035714Y-82923810D01*
X192035714Y-82780952D01*
X191988095Y-82590476D01*
X191940476Y-82495238D01*
X191845238Y-82400000D01*
X191702380Y-82352381D01*
X191607142Y-82352381D01*
X191464285Y-82400000D01*
X191416666Y-82447619D01*
X190511904Y-82352381D02*
X190988095Y-82352381D01*
X191035714Y-82828571D01*
X190988095Y-82780952D01*
X190892857Y-82733333D01*
X190654761Y-82733333D01*
X190559523Y-82780952D01*
X190511904Y-82828571D01*
X190464285Y-82923810D01*
X190464285Y-83161905D01*
X190511904Y-83257143D01*
X190559523Y-83304762D01*
X190654761Y-83352381D01*
X190892857Y-83352381D01*
X190988095Y-83304762D01*
X191035714Y-83257143D01*
X191266666Y-74632143D02*
X191314285Y-74679762D01*
X191457142Y-74727381D01*
X191552380Y-74727381D01*
X191695238Y-74679762D01*
X191790476Y-74584524D01*
X191838095Y-74489286D01*
X191885714Y-74298810D01*
X191885714Y-74155952D01*
X191838095Y-73965476D01*
X191790476Y-73870238D01*
X191695238Y-73775000D01*
X191552380Y-73727381D01*
X191457142Y-73727381D01*
X191314285Y-73775000D01*
X191266666Y-73822619D01*
X190409523Y-74060714D02*
X190409523Y-74727381D01*
X190647619Y-73679762D02*
X190885714Y-74394048D01*
X190266666Y-74394048D01*
X209666666Y-83907143D02*
X209714285Y-83954762D01*
X209857142Y-84002381D01*
X209952380Y-84002381D01*
X210095238Y-83954762D01*
X210190476Y-83859524D01*
X210238095Y-83764286D01*
X210285714Y-83573810D01*
X210285714Y-83430952D01*
X210238095Y-83240476D01*
X210190476Y-83145238D01*
X210095238Y-83050000D01*
X209952380Y-83002381D01*
X209857142Y-83002381D01*
X209714285Y-83050000D01*
X209666666Y-83097619D01*
X209333333Y-83002381D02*
X208714285Y-83002381D01*
X209047619Y-83383333D01*
X208904761Y-83383333D01*
X208809523Y-83430952D01*
X208761904Y-83478571D01*
X208714285Y-83573810D01*
X208714285Y-83811905D01*
X208761904Y-83907143D01*
X208809523Y-83954762D01*
X208904761Y-84002381D01*
X209190476Y-84002381D01*
X209285714Y-83954762D01*
X209333333Y-83907143D01*
X191785714Y-80928571D02*
X191642857Y-80976190D01*
X191595238Y-81023810D01*
X191547619Y-81119048D01*
X191547619Y-81261905D01*
X191595238Y-81357143D01*
X191642857Y-81404762D01*
X191738095Y-81452381D01*
X192119048Y-81452381D01*
X192119048Y-80452381D01*
X191785714Y-80452381D01*
X191690476Y-80500000D01*
X191642857Y-80547619D01*
X191595238Y-80642857D01*
X191595238Y-80738095D01*
X191642857Y-80833333D01*
X191690476Y-80880952D01*
X191785714Y-80928571D01*
X192119048Y-80928571D01*
X191261905Y-80452381D02*
X190690476Y-80452381D01*
X190976191Y-81452381D02*
X190976191Y-80452381D01*
X189833333Y-81452381D02*
X190404762Y-81452381D01*
X190119048Y-81452381D02*
X190119048Y-80452381D01*
X190214286Y-80595238D01*
X190309524Y-80690476D01*
X190404762Y-80738095D01*
D15*
X197169714Y-95597428D02*
X196407714Y-95597428D01*
X196407714Y-95416000D01*
X196444000Y-95307143D01*
X196516571Y-95234571D01*
X196589143Y-95198286D01*
X196734286Y-95162000D01*
X196843143Y-95162000D01*
X196988286Y-95198286D01*
X197060857Y-95234571D01*
X197133429Y-95307143D01*
X197169714Y-95416000D01*
X197169714Y-95597428D01*
X197169714Y-94436286D02*
X197169714Y-94871714D01*
X197169714Y-94654000D02*
X196407714Y-94654000D01*
X196516571Y-94726571D01*
X196589143Y-94799143D01*
X196625429Y-94871714D01*
X203519714Y-96577142D02*
X203519714Y-96939999D01*
X202757714Y-96939999D01*
X203120571Y-96323142D02*
X203120571Y-96069142D01*
X203519714Y-95960285D02*
X203519714Y-96323142D01*
X202757714Y-96323142D01*
X202757714Y-95960285D01*
X203519714Y-95633713D02*
X202757714Y-95633713D01*
X202757714Y-95452285D01*
X202794000Y-95343428D01*
X202866571Y-95270856D01*
X202939143Y-95234571D01*
X203084286Y-95198285D01*
X203193143Y-95198285D01*
X203338286Y-95234571D01*
X203410857Y-95270856D01*
X203483429Y-95343428D01*
X203519714Y-95452285D01*
X203519714Y-95633713D01*
X203592286Y-95053142D02*
X203592286Y-94472571D01*
X203519714Y-93855714D02*
X203156857Y-94109714D01*
X203519714Y-94291142D02*
X202757714Y-94291142D01*
X202757714Y-94000857D01*
X202794000Y-93928285D01*
X202830286Y-93892000D01*
X202902857Y-93855714D01*
X203011714Y-93855714D01*
X203084286Y-93892000D01*
X203120571Y-93928285D01*
X203156857Y-94000857D01*
X203156857Y-94291142D01*
X202794000Y-93130000D02*
X202757714Y-93202571D01*
X202757714Y-93311428D01*
X202794000Y-93420285D01*
X202866571Y-93492857D01*
X202939143Y-93529142D01*
X203084286Y-93565428D01*
X203193143Y-93565428D01*
X203338286Y-93529142D01*
X203410857Y-93492857D01*
X203483429Y-93420285D01*
X203519714Y-93311428D01*
X203519714Y-93238857D01*
X203483429Y-93130000D01*
X203447143Y-93093714D01*
X203193143Y-93093714D01*
X203193143Y-93238857D01*
X203120571Y-92513142D02*
X203156857Y-92404285D01*
X203193143Y-92368000D01*
X203265714Y-92331714D01*
X203374571Y-92331714D01*
X203447143Y-92368000D01*
X203483429Y-92404285D01*
X203519714Y-92476857D01*
X203519714Y-92767142D01*
X202757714Y-92767142D01*
X202757714Y-92513142D01*
X202794000Y-92440571D01*
X202830286Y-92404285D01*
X202902857Y-92368000D01*
X202975429Y-92368000D01*
X203048000Y-92404285D01*
X203084286Y-92440571D01*
X203120571Y-92513142D01*
X203120571Y-92767142D01*
M02*
