G04 #@! TF.FileFunction,Soldermask,Bot*
%FSLAX46Y46*%
G04 Gerber Fmt 4.6, Leading zero omitted, Abs format (unit mm)*
G04 Created by KiCad (PCBNEW 4.0.6-e0-6349~52~ubuntu16.10.1) date Sat Apr 29 12:35:10 2017*
%MOMM*%
%LPD*%
G01*
G04 APERTURE LIST*
%ADD10C,0.100000*%
%ADD11C,1.924000*%
%ADD12R,1.550000X5.480000*%
%ADD13R,5.480000X5.480000*%
%ADD14R,2.350000X1.900000*%
%ADD15R,1.200000X1.150000*%
%ADD16R,2.200000X2.200000*%
%ADD17O,2.200000X2.200000*%
%ADD18R,1.300000X1.200000*%
%ADD19R,0.900000X1.300000*%
%ADD20R,0.650000X1.100000*%
%ADD21R,1.100000X0.650000*%
%ADD22R,2.125000X2.125000*%
%ADD23R,3.399740X1.598880*%
G04 APERTURE END LIST*
D10*
D11*
X242800000Y-140000000D03*
D12*
X264875000Y-110000000D03*
X243125000Y-110000000D03*
D13*
X254000000Y-110000000D03*
D14*
X245875000Y-119000000D03*
X243125000Y-119000000D03*
D15*
X263650000Y-127225000D03*
X262150000Y-127225000D03*
X263500000Y-118600000D03*
X262000000Y-118600000D03*
D16*
X263460000Y-141340000D03*
D17*
X266000000Y-141340000D03*
X263460000Y-138800000D03*
X266000000Y-138800000D03*
X263460000Y-136260000D03*
X266000000Y-136260000D03*
D18*
X260500000Y-131900000D03*
X260500000Y-130000000D03*
X262500000Y-130950000D03*
D15*
X244350000Y-137500000D03*
X245850000Y-137500000D03*
X265000000Y-133000000D03*
X263500000Y-133000000D03*
D19*
X263500000Y-129250000D03*
X265000000Y-129250000D03*
D20*
X265150000Y-125600000D03*
X264650000Y-125600000D03*
X264150000Y-125600000D03*
X263650000Y-125600000D03*
X263150000Y-125600000D03*
X262650000Y-125600000D03*
X262150000Y-125600000D03*
X261650000Y-125600000D03*
D21*
X261000000Y-124950000D03*
X261000000Y-124450000D03*
X261000000Y-123950000D03*
X261000000Y-123450000D03*
X261000000Y-122950000D03*
X261000000Y-122450000D03*
X261000000Y-121950000D03*
X261000000Y-121450000D03*
D20*
X261650000Y-120800000D03*
X262150000Y-120800000D03*
X262650000Y-120800000D03*
X263150000Y-120800000D03*
X263650000Y-120800000D03*
X264150000Y-120800000D03*
X264650000Y-120800000D03*
X265150000Y-120800000D03*
D21*
X265800000Y-121450000D03*
X265800000Y-121950000D03*
X265800000Y-122450000D03*
X265800000Y-122950000D03*
X265800000Y-123450000D03*
X265800000Y-123950000D03*
X265800000Y-124450000D03*
X265800000Y-124950000D03*
D22*
X262537500Y-122337500D03*
X264262500Y-122337500D03*
X262537500Y-124062500D03*
X264262500Y-124062500D03*
D23*
X257198080Y-121352300D03*
X257198080Y-123351280D03*
X257198080Y-125350260D03*
X257198080Y-127351780D03*
X257198080Y-129348220D03*
X257198080Y-131349740D03*
X257198080Y-133348720D03*
X257198080Y-135347700D03*
X242201920Y-135347700D03*
X242201920Y-133348720D03*
X242201920Y-131349740D03*
X242201920Y-129348220D03*
X242201920Y-127351780D03*
X242201920Y-125350260D03*
X242201920Y-123351280D03*
X242201920Y-121352300D03*
D11*
X215800000Y-140000000D03*
X188800000Y-140000000D03*
D20*
X238150000Y-125600000D03*
X237650000Y-125600000D03*
X237150000Y-125600000D03*
X236650000Y-125600000D03*
X236150000Y-125600000D03*
X235650000Y-125600000D03*
X235150000Y-125600000D03*
X234650000Y-125600000D03*
D21*
X234000000Y-124950000D03*
X234000000Y-124450000D03*
X234000000Y-123950000D03*
X234000000Y-123450000D03*
X234000000Y-122950000D03*
X234000000Y-122450000D03*
X234000000Y-121950000D03*
X234000000Y-121450000D03*
D20*
X234650000Y-120800000D03*
X235150000Y-120800000D03*
X235650000Y-120800000D03*
X236150000Y-120800000D03*
X236650000Y-120800000D03*
X237150000Y-120800000D03*
X237650000Y-120800000D03*
X238150000Y-120800000D03*
D21*
X238800000Y-121450000D03*
X238800000Y-121950000D03*
X238800000Y-122450000D03*
X238800000Y-122950000D03*
X238800000Y-123450000D03*
X238800000Y-123950000D03*
X238800000Y-124450000D03*
X238800000Y-124950000D03*
D22*
X235537500Y-122337500D03*
X237262500Y-122337500D03*
X235537500Y-124062500D03*
X237262500Y-124062500D03*
D20*
X211150000Y-125600000D03*
X210650000Y-125600000D03*
X210150000Y-125600000D03*
X209650000Y-125600000D03*
X209150000Y-125600000D03*
X208650000Y-125600000D03*
X208150000Y-125600000D03*
X207650000Y-125600000D03*
D21*
X207000000Y-124950000D03*
X207000000Y-124450000D03*
X207000000Y-123950000D03*
X207000000Y-123450000D03*
X207000000Y-122950000D03*
X207000000Y-122450000D03*
X207000000Y-121950000D03*
X207000000Y-121450000D03*
D20*
X207650000Y-120800000D03*
X208150000Y-120800000D03*
X208650000Y-120800000D03*
X209150000Y-120800000D03*
X209650000Y-120800000D03*
X210150000Y-120800000D03*
X210650000Y-120800000D03*
X211150000Y-120800000D03*
D21*
X211800000Y-121450000D03*
X211800000Y-121950000D03*
X211800000Y-122450000D03*
X211800000Y-122950000D03*
X211800000Y-123450000D03*
X211800000Y-123950000D03*
X211800000Y-124450000D03*
X211800000Y-124950000D03*
D22*
X208537500Y-122337500D03*
X210262500Y-122337500D03*
X208537500Y-124062500D03*
X210262500Y-124062500D03*
D23*
X230198080Y-121352300D03*
X230198080Y-123351280D03*
X230198080Y-125350260D03*
X230198080Y-127351780D03*
X230198080Y-129348220D03*
X230198080Y-131349740D03*
X230198080Y-133348720D03*
X230198080Y-135347700D03*
X215201920Y-135347700D03*
X215201920Y-133348720D03*
X215201920Y-131349740D03*
X215201920Y-129348220D03*
X215201920Y-127351780D03*
X215201920Y-125350260D03*
X215201920Y-123351280D03*
X215201920Y-121352300D03*
X203198080Y-121352300D03*
X203198080Y-123351280D03*
X203198080Y-125350260D03*
X203198080Y-127351780D03*
X203198080Y-129348220D03*
X203198080Y-131349740D03*
X203198080Y-133348720D03*
X203198080Y-135347700D03*
X188201920Y-135347700D03*
X188201920Y-133348720D03*
X188201920Y-131349740D03*
X188201920Y-129348220D03*
X188201920Y-127351780D03*
X188201920Y-125350260D03*
X188201920Y-123351280D03*
X188201920Y-121352300D03*
D16*
X236460000Y-141340000D03*
D17*
X239000000Y-141340000D03*
X236460000Y-138800000D03*
X239000000Y-138800000D03*
X236460000Y-136260000D03*
X239000000Y-136260000D03*
D16*
X209460000Y-141340000D03*
D17*
X212000000Y-141340000D03*
X209460000Y-138800000D03*
X212000000Y-138800000D03*
X209460000Y-136260000D03*
X212000000Y-136260000D03*
D15*
X217350000Y-137500000D03*
X218850000Y-137500000D03*
X190350000Y-137500000D03*
X191850000Y-137500000D03*
X238000000Y-133000000D03*
X236500000Y-133000000D03*
X211000000Y-133000000D03*
X209500000Y-133000000D03*
D18*
X233500000Y-131900000D03*
X233500000Y-130000000D03*
X235500000Y-130950000D03*
X206500000Y-131900000D03*
X206500000Y-130000000D03*
X208500000Y-130950000D03*
D19*
X236500000Y-129250000D03*
X238000000Y-129250000D03*
X209500000Y-129250000D03*
X211000000Y-129250000D03*
D15*
X236500000Y-118600000D03*
X235000000Y-118600000D03*
X209500000Y-118600000D03*
X208000000Y-118600000D03*
X236650000Y-127225000D03*
X235150000Y-127225000D03*
X209650000Y-127225000D03*
X208150000Y-127225000D03*
D14*
X218875000Y-119000000D03*
X216125000Y-119000000D03*
X191875000Y-119000000D03*
X189125000Y-119000000D03*
D12*
X237875000Y-110000000D03*
X216125000Y-110000000D03*
D13*
X227000000Y-110000000D03*
D12*
X210875000Y-110000000D03*
X189125000Y-110000000D03*
D13*
X200000000Y-110000000D03*
D12*
X243125000Y-90000000D03*
X264875000Y-90000000D03*
D13*
X254000000Y-90000000D03*
D12*
X216125000Y-90000000D03*
X237875000Y-90000000D03*
D13*
X227000000Y-90000000D03*
D14*
X262125000Y-81000000D03*
X264875000Y-81000000D03*
X235125000Y-81000000D03*
X237875000Y-81000000D03*
D15*
X244350000Y-72775000D03*
X245850000Y-72775000D03*
X217350000Y-72775000D03*
X218850000Y-72775000D03*
X244500000Y-81400000D03*
X246000000Y-81400000D03*
X217500000Y-81400000D03*
X219000000Y-81400000D03*
D19*
X244500000Y-70750000D03*
X243000000Y-70750000D03*
X217500000Y-70750000D03*
X216000000Y-70750000D03*
D18*
X247500000Y-68100000D03*
X247500000Y-70000000D03*
X245500000Y-69050000D03*
X220500000Y-68100000D03*
X220500000Y-70000000D03*
X218500000Y-69050000D03*
D15*
X243000000Y-67000000D03*
X244500000Y-67000000D03*
X216000000Y-67000000D03*
X217500000Y-67000000D03*
X263650000Y-62500000D03*
X262150000Y-62500000D03*
X236650000Y-62500000D03*
X235150000Y-62500000D03*
D16*
X244540000Y-58660000D03*
D17*
X242000000Y-58660000D03*
X244540000Y-61200000D03*
X242000000Y-61200000D03*
X244540000Y-63740000D03*
X242000000Y-63740000D03*
D16*
X217540000Y-58660000D03*
D17*
X215000000Y-58660000D03*
X217540000Y-61200000D03*
X215000000Y-61200000D03*
X217540000Y-63740000D03*
X215000000Y-63740000D03*
D23*
X250801920Y-78647700D03*
X250801920Y-76648720D03*
X250801920Y-74649740D03*
X250801920Y-72648220D03*
X250801920Y-70651780D03*
X250801920Y-68650260D03*
X250801920Y-66651280D03*
X250801920Y-64652300D03*
X265798080Y-64652300D03*
X265798080Y-66651280D03*
X265798080Y-68650260D03*
X265798080Y-70651780D03*
X265798080Y-72648220D03*
X265798080Y-74649740D03*
X265798080Y-76648720D03*
X265798080Y-78647700D03*
X223801920Y-78647700D03*
X223801920Y-76648720D03*
X223801920Y-74649740D03*
X223801920Y-72648220D03*
X223801920Y-70651780D03*
X223801920Y-68650260D03*
X223801920Y-66651280D03*
X223801920Y-64652300D03*
X238798080Y-64652300D03*
X238798080Y-66651280D03*
X238798080Y-68650260D03*
X238798080Y-70651780D03*
X238798080Y-72648220D03*
X238798080Y-74649740D03*
X238798080Y-76648720D03*
X238798080Y-78647700D03*
D20*
X242850000Y-74400000D03*
X243350000Y-74400000D03*
X243850000Y-74400000D03*
X244350000Y-74400000D03*
X244850000Y-74400000D03*
X245350000Y-74400000D03*
X245850000Y-74400000D03*
X246350000Y-74400000D03*
D21*
X247000000Y-75050000D03*
X247000000Y-75550000D03*
X247000000Y-76050000D03*
X247000000Y-76550000D03*
X247000000Y-77050000D03*
X247000000Y-77550000D03*
X247000000Y-78050000D03*
X247000000Y-78550000D03*
D20*
X246350000Y-79200000D03*
X245850000Y-79200000D03*
X245350000Y-79200000D03*
X244850000Y-79200000D03*
X244350000Y-79200000D03*
X243850000Y-79200000D03*
X243350000Y-79200000D03*
X242850000Y-79200000D03*
D21*
X242200000Y-78550000D03*
X242200000Y-78050000D03*
X242200000Y-77550000D03*
X242200000Y-77050000D03*
X242200000Y-76550000D03*
X242200000Y-76050000D03*
X242200000Y-75550000D03*
X242200000Y-75050000D03*
D22*
X245462500Y-77662500D03*
X243737500Y-77662500D03*
X245462500Y-75937500D03*
X243737500Y-75937500D03*
D20*
X215850000Y-74400000D03*
X216350000Y-74400000D03*
X216850000Y-74400000D03*
X217350000Y-74400000D03*
X217850000Y-74400000D03*
X218350000Y-74400000D03*
X218850000Y-74400000D03*
X219350000Y-74400000D03*
D21*
X220000000Y-75050000D03*
X220000000Y-75550000D03*
X220000000Y-76050000D03*
X220000000Y-76550000D03*
X220000000Y-77050000D03*
X220000000Y-77550000D03*
X220000000Y-78050000D03*
X220000000Y-78550000D03*
D20*
X219350000Y-79200000D03*
X218850000Y-79200000D03*
X218350000Y-79200000D03*
X217850000Y-79200000D03*
X217350000Y-79200000D03*
X216850000Y-79200000D03*
X216350000Y-79200000D03*
X215850000Y-79200000D03*
D21*
X215200000Y-78550000D03*
X215200000Y-78050000D03*
X215200000Y-77550000D03*
X215200000Y-77050000D03*
X215200000Y-76550000D03*
X215200000Y-76050000D03*
X215200000Y-75550000D03*
X215200000Y-75050000D03*
D22*
X218462500Y-77662500D03*
X216737500Y-77662500D03*
X218462500Y-75937500D03*
X216737500Y-75937500D03*
D11*
X265200000Y-60000000D03*
X238200000Y-60000000D03*
D23*
X196801920Y-78647700D03*
X196801920Y-76648720D03*
X196801920Y-74649740D03*
X196801920Y-72648220D03*
X196801920Y-70651780D03*
X196801920Y-68650260D03*
X196801920Y-66651280D03*
X196801920Y-64652300D03*
X211798080Y-64652300D03*
X211798080Y-66651280D03*
X211798080Y-68650260D03*
X211798080Y-70651780D03*
X211798080Y-72648220D03*
X211798080Y-74649740D03*
X211798080Y-76648720D03*
X211798080Y-78647700D03*
D20*
X188850000Y-74400000D03*
X189350000Y-74400000D03*
X189850000Y-74400000D03*
X190350000Y-74400000D03*
X190850000Y-74400000D03*
X191350000Y-74400000D03*
X191850000Y-74400000D03*
X192350000Y-74400000D03*
D21*
X193000000Y-75050000D03*
X193000000Y-75550000D03*
X193000000Y-76050000D03*
X193000000Y-76550000D03*
X193000000Y-77050000D03*
X193000000Y-77550000D03*
X193000000Y-78050000D03*
X193000000Y-78550000D03*
D20*
X192350000Y-79200000D03*
X191850000Y-79200000D03*
X191350000Y-79200000D03*
X190850000Y-79200000D03*
X190350000Y-79200000D03*
X189850000Y-79200000D03*
X189350000Y-79200000D03*
X188850000Y-79200000D03*
D21*
X188200000Y-78550000D03*
X188200000Y-78050000D03*
X188200000Y-77550000D03*
X188200000Y-77050000D03*
X188200000Y-76550000D03*
X188200000Y-76050000D03*
X188200000Y-75550000D03*
X188200000Y-75050000D03*
D22*
X191462500Y-77662500D03*
X189737500Y-77662500D03*
X191462500Y-75937500D03*
X189737500Y-75937500D03*
D19*
X190500000Y-70750000D03*
X189000000Y-70750000D03*
D15*
X189000000Y-67000000D03*
X190500000Y-67000000D03*
X209650000Y-62500000D03*
X208150000Y-62500000D03*
D18*
X193500000Y-68100000D03*
X193500000Y-70000000D03*
X191500000Y-69050000D03*
D16*
X190540000Y-58660000D03*
D17*
X188000000Y-58660000D03*
X190540000Y-61200000D03*
X188000000Y-61200000D03*
X190540000Y-63740000D03*
X188000000Y-63740000D03*
D15*
X190500000Y-81400000D03*
X192000000Y-81400000D03*
X190350000Y-72775000D03*
X191850000Y-72775000D03*
D14*
X208125000Y-81000000D03*
X210875000Y-81000000D03*
D12*
X189125000Y-90000000D03*
X210875000Y-90000000D03*
D13*
X200000000Y-90000000D03*
D11*
X211200000Y-60000000D03*
M02*
