M48
;DRILL file {KiCad 4.0.6-e0-6349~52~ubuntu16.10.1} date Sat Apr 29 12:35:23 2017
;FORMAT={-:-/ absolute / inch / decimal}
FMAT,2
INCH,TZ
T1C0.012
T2C0.016
T3C0.030
T4C0.057
%
G90
G05
M72
T1
X7.3622Y-5.4094
X7.3888Y-2.8386
X7.3937Y-2.7717
X7.4071Y-2.9138
X7.4101Y-2.9402
X7.4134Y-2.6378
X7.4347Y-2.8768
X7.435Y-3.3196
X7.4488Y-3.2953
X7.4488Y-5.4094
X7.4543Y-2.8237
X7.4646Y-4.8996
X7.4699Y-3.2791
X7.4746Y-2.8667
X7.4787Y-4.7236
X7.4933Y-2.9046
X7.5089Y-3.249
X7.5428Y-4.7677
X7.5531Y-5.3583
X7.5561Y-2.885
X7.5787Y-2.8307
X7.5827Y-2.5591
X7.5866Y-2.6102
X7.5984Y-3.1181
X7.6083Y-2.8081
X7.626Y-2.8819
X7.6309Y-2.6184
X7.6457Y-2.8543
X7.6801Y-2.663
X7.7165Y-4.7677
X7.7598Y-5.2087
X7.7904Y-3.06
X7.874Y-3.7402
X7.874Y-4.1339
X7.9577Y-4.814
X7.9882Y-2.6654
X8.0315Y-3.1063
X8.0679Y-5.2111
X8.1024Y-5.0197
X8.1171Y-5.2556
X8.122Y-4.9921
X8.1398Y-5.0659
X8.1496Y-4.7559
X8.1614Y-5.2638
X8.1654Y-5.315
X8.1693Y-5.0433
X8.1919Y-4.989
X8.1949Y-2.5157
X8.2052Y-3.1063
X8.2392Y-4.625
X8.2547Y-4.9695
X8.2693Y-3.1504
X8.2734Y-5.0073
X8.2781Y-4.595
X8.2835Y-2.9744
X8.2938Y-5.0503
X8.2992Y-2.4646
X8.2992Y-4.5787
X8.3131Y-4.5544
X8.3133Y-4.9972
X8.3346Y-5.2362
X8.3379Y-4.9338
X8.3409Y-4.9602
X8.3543Y-5.1024
X8.3593Y-5.0354
X8.3858Y-2.4646
X8.4252Y-5.4094
X8.4518Y-2.8386
X8.4567Y-2.7717
X8.4701Y-2.9138
X8.4731Y-2.9402
X8.4764Y-2.6378
X8.4977Y-2.8768
X8.498Y-3.3196
X8.5118Y-3.2953
X8.5118Y-5.4094
X8.5173Y-2.8237
X8.5276Y-4.8996
X8.5329Y-3.2791
X8.5376Y-2.8667
X8.5417Y-4.7236
X8.5563Y-2.9046
X8.5719Y-3.249
X8.6058Y-4.7677
X8.6161Y-5.3583
X8.6191Y-2.885
X8.6417Y-2.8307
X8.6457Y-2.5591
X8.6496Y-2.6102
X8.6614Y-3.1181
X8.6713Y-2.8081
X8.689Y-2.8819
X8.6939Y-2.6184
X8.7087Y-2.8543
X8.7431Y-2.663
X8.7795Y-4.7677
X8.8228Y-5.2087
X8.8533Y-3.06
X8.937Y-3.7402
X8.937Y-4.1339
X9.0207Y-4.814
X9.0512Y-2.6654
X9.0945Y-3.1063
X9.1309Y-5.2111
X9.1654Y-5.0197
X9.1801Y-5.2556
X9.185Y-4.9921
X9.2028Y-5.0659
X9.2126Y-4.7559
X9.2244Y-5.2638
X9.2283Y-5.315
X9.2323Y-5.0433
X9.2549Y-4.989
X9.2579Y-2.5157
X9.2682Y-3.1063
X9.3022Y-4.625
X9.3177Y-4.9695
X9.3323Y-3.1504
X9.3364Y-5.0073
X9.3411Y-4.595
X9.3465Y-2.9744
X9.3567Y-5.0503
X9.3622Y-2.4646
X9.3622Y-4.5787
X9.3761Y-4.5544
X9.3763Y-4.9972
X9.3976Y-5.2362
X9.4009Y-4.9338
X9.4039Y-4.9602
X9.4173Y-5.1024
X9.4222Y-5.0354
X9.4488Y-2.4646
X9.4882Y-5.4094
X9.5148Y-2.8386
X9.5197Y-2.7717
X9.5331Y-2.9138
X9.5361Y-2.9402
X9.5394Y-2.6378
X9.5607Y-2.8768
X9.561Y-3.3196
X9.5748Y-3.2953
X9.5748Y-5.4094
X9.5803Y-2.8237
X9.5906Y-4.8996
X9.5959Y-3.2791
X9.6006Y-2.8667
X9.6047Y-4.7236
X9.6193Y-2.9046
X9.6348Y-3.249
X9.6688Y-4.7677
X9.6791Y-5.3583
X9.6821Y-2.885
X9.7047Y-2.8307
X9.7087Y-2.5591
X9.7126Y-2.6102
X9.7244Y-3.1181
X9.7343Y-2.8081
X9.752Y-2.8819
X9.7569Y-2.6184
X9.7717Y-2.8543
X9.8061Y-2.663
X9.8425Y-4.7677
X9.8858Y-5.2087
X9.9163Y-3.06
X10.Y-3.7402
X10.Y-4.1339
X10.0837Y-4.814
X10.1142Y-2.6654
X10.1575Y-3.1063
X10.1939Y-5.2111
X10.2283Y-5.0197
X10.2431Y-5.2556
X10.248Y-4.9921
X10.2657Y-5.0659
X10.2756Y-4.7559
X10.2874Y-5.2638
X10.2913Y-5.315
X10.2953Y-5.0433
X10.3179Y-4.989
X10.3209Y-2.5157
X10.3312Y-3.1063
X10.3652Y-4.625
X10.3807Y-4.9695
X10.3953Y-3.1504
X10.3994Y-5.0073
X10.4041Y-4.595
X10.4094Y-2.9744
X10.4197Y-5.0503
X10.4252Y-2.4646
X10.4252Y-4.5787
X10.439Y-4.5544
X10.4393Y-4.9972
X10.4606Y-5.2362
X10.4639Y-4.9338
X10.4669Y-4.9602
X10.4803Y-5.1024
X10.4852Y-5.0354
X10.5118Y-2.4646
T2
X7.4547Y-5.2307
X7.7748Y-4.4315
X7.7756Y-3.4449
X7.9724Y-4.4291
X7.9732Y-3.4425
X8.2933Y-2.6433
X8.5177Y-5.2307
X8.8378Y-4.4315
X8.8386Y-3.4449
X9.0354Y-4.4291
X9.0362Y-3.4425
X9.3563Y-2.6433
X9.5807Y-5.2307
X9.9008Y-4.4315
X9.9016Y-3.4449
X10.0984Y-4.4291
X10.0992Y-3.4425
X10.4193Y-2.6433
T3
X7.4331Y-5.5118
X8.315Y-2.3622
X8.4961Y-5.5118
X9.378Y-2.3622
X9.5591Y-5.5118
X10.4409Y-2.3622
T4
X7.4016Y-2.3094
X7.4016Y-2.4094
X7.4016Y-2.5094
X7.5016Y-2.3094
X7.5016Y-2.4094
X7.5016Y-2.5094
X8.2465Y-5.3646
X8.2465Y-5.4646
X8.2465Y-5.5646
X8.3465Y-5.3646
X8.3465Y-5.4646
X8.3465Y-5.5646
X8.4646Y-2.3094
X8.4646Y-2.4094
X8.4646Y-2.5094
X8.5646Y-2.3094
X8.5646Y-2.4094
X8.5646Y-2.5094
X9.3094Y-5.3646
X9.3094Y-5.4646
X9.3094Y-5.5646
X9.4094Y-5.3646
X9.4094Y-5.4646
X9.4094Y-5.5646
X9.5276Y-2.3094
X9.5276Y-2.4094
X9.5276Y-2.5094
X9.6276Y-2.3094
X9.6276Y-2.4094
X9.6276Y-2.5094
X10.3724Y-5.3646
X10.3724Y-5.4646
X10.3724Y-5.5646
X10.4724Y-5.3646
X10.4724Y-5.4646
X10.4724Y-5.5646
T0
M30
